<?xml version="1.0" encoding="utf-8" standalone="no"?>
<!DOCTYPE svg PUBLIC "-//W3C//DTD SVG 1.1//EN"
  "http://www.w3.org/Graphics/SVG/1.1/DTD/svg11.dtd">
<!-- Created with matplotlib (https://matplotlib.org/) -->
<svg height="344.16pt" version="1.1" viewBox="0 0 460.8 344.16" width="460.8pt" xmlns="http://www.w3.org/2000/svg" xmlns:xlink="http://www.w3.org/1999/xlink">
 <defs>
  <style type="text/css">
*{stroke-linecap:butt;stroke-linejoin:round;}
  </style>
 </defs>
 <g id="figure_1">
  <g id="patch_1">
   <path d="M 0 344.16 
L 460.8 344.16 
L 460.8 0 
L 0 0 
z
" style="fill:#ffffff;"/>
  </g>
  <g id="axes_1">
   <g id="patch_2">
    <path d="M 53.390715 307.416819 
L 450 307.416819 
L 450 24.997587 
L 53.390715 24.997587 
z
" style="fill:#ffffff;"/>
   </g>
   <g id="matplotlib.axis_1">
    <g id="xtick_1">
     <g id="line2d_1">
      <path clip-path="url(#pa8ca7eefd4)" d="M 90.394931 307.416819 
L 90.394931 24.997587 
" style="fill:none;stroke:#666666;stroke-dasharray:2.96,1.28;stroke-dashoffset:0;stroke-width:0.8;"/>
     </g>
     <g id="line2d_2">
      <defs>
       <path d="M 0 0 
L 0 -5 
" id="m11b2c3cb22" style="stroke:#000000;"/>
      </defs>
      <g>
       <use style="stroke:#000000;" x="90.394931" xlink:href="#m11b2c3cb22" y="307.416819"/>
      </g>
     </g>
     <g id="line2d_3">
      <defs>
       <path d="M 0 0 
L 0 5 
" id="m16bb9c4d7b" style="stroke:#000000;"/>
      </defs>
      <g>
       <use style="stroke:#000000;" x="90.394931" xlink:href="#m16bb9c4d7b" y="24.997587"/>
      </g>
     </g>
     <g id="text_1">
      <!-- $2$ -->
      <defs>
       <path d="M 41.703125 15.46875 
L 39.90625 15.46875 
C 38.90625 8.390625 38.09375 7.1875 37.703125 6.59375 
C 37.203125 5.796875 30 5.796875 28.59375 5.796875 
L 9.40625 5.796875 
C 13 9.6875 20 16.765625 28.5 24.9375 
C 34.59375 30.71875 41.703125 37.5 41.703125 47.390625 
C 41.703125 59.1875 32.296875 66 21.796875 66 
C 10.796875 66 4.09375 56.296875 4.09375 47.296875 
C 4.09375 43.390625 7 42.890625 8.203125 42.890625 
C 9.203125 42.890625 12.203125 43.484375 12.203125 46.984375 
C 12.203125 50.09375 9.59375 51 8.203125 51 
C 7.59375 51 7 50.890625 6.59375 50.6875 
C 8.5 59.1875 14.296875 63.390625 20.40625 63.390625 
C 29.09375 63.390625 34.796875 56.5 34.796875 47.390625 
C 34.796875 38.703125 29.703125 31.21875 24 24.734375 
L 4.09375 2.296875 
L 4.09375 0 
L 39.296875 0 
z
" id="CMR17-50"/>
      </defs>
      <g transform="translate(87.904263 317.835317)scale(0.1 -0.1)">
       <use transform="scale(0.996264)" xlink:href="#CMR17-50"/>
      </g>
     </g>
    </g>
    <g id="xtick_2">
     <g id="line2d_4">
      <path clip-path="url(#pa8ca7eefd4)" d="M 128.347972 307.416819 
L 128.347972 24.997587 
" style="fill:none;stroke:#666666;stroke-dasharray:2.96,1.28;stroke-dashoffset:0;stroke-width:0.8;"/>
     </g>
     <g id="line2d_5">
      <g>
       <use style="stroke:#000000;" x="128.347972" xlink:href="#m11b2c3cb22" y="307.416819"/>
      </g>
     </g>
     <g id="line2d_6">
      <g>
       <use style="stroke:#000000;" x="128.347972" xlink:href="#m16bb9c4d7b" y="24.997587"/>
      </g>
     </g>
     <g id="text_2">
      <!-- $4$ -->
      <defs>
       <path d="M 33.59375 64.796875 
C 33.59375 66.890625 33.5 67 31.703125 67 
L 2 19.59375 
L 2 17 
L 27.796875 17 
L 27.796875 7.1875 
C 27.796875 3.59375 27.59375 2.59375 20.59375 2.59375 
L 18.703125 2.59375 
L 18.703125 0 
C 21.90625 0.1875 27.296875 0.1875 30.703125 0.1875 
C 34.09375 0.1875 39.5 0.1875 42.703125 0 
L 42.703125 2.59375 
L 40.796875 2.59375 
C 33.796875 2.59375 33.59375 3.59375 33.59375 7.1875 
L 33.59375 17 
L 43.796875 17 
L 43.796875 19.59375 
L 33.59375 19.59375 
z
M 28.09375 58.171875 
L 28.09375 19.59375 
L 4 19.59375 
z
" id="CMR17-52"/>
      </defs>
      <g transform="translate(125.857305 317.835317)scale(0.1 -0.1)">
       <use transform="scale(0.996264)" xlink:href="#CMR17-52"/>
      </g>
     </g>
    </g>
    <g id="xtick_3">
     <g id="line2d_7">
      <path clip-path="url(#pa8ca7eefd4)" d="M 166.301014 307.416819 
L 166.301014 24.997587 
" style="fill:none;stroke:#666666;stroke-dasharray:2.96,1.28;stroke-dashoffset:0;stroke-width:0.8;"/>
     </g>
     <g id="line2d_8">
      <g>
       <use style="stroke:#000000;" x="166.301014" xlink:href="#m11b2c3cb22" y="307.416819"/>
      </g>
     </g>
     <g id="line2d_9">
      <g>
       <use style="stroke:#000000;" x="166.301014" xlink:href="#m16bb9c4d7b" y="24.997587"/>
      </g>
     </g>
     <g id="text_3">
      <!-- $6$ -->
      <defs>
       <path d="M 10.59375 34.34375 
C 10.59375 58 21.796875 63.6875 28.296875 63.6875 
C 30.40625 63.6875 35.5 63.265625 37.5 59.09375 
C 35.90625 59.09375 32.90625 59.09375 32.90625 55.59375 
C 32.90625 52.890625 35.09375 52 36.5 52 
C 37.40625 52 40.09375 52.390625 40.09375 55.796875 
C 40.09375 62.296875 35.09375 66 28.203125 66 
C 16.296875 66 3.796875 53.296875 3.796875 31.421875 
C 3.796875 4.015625 15.09375 -2 23.09375 -2 
C 32.796875 -2 42 6.734375 42 20.234375 
C 42 32.828125 33.90625 42 23.703125 42 
C 17.59375 42 13.09375 37.96875 10.59375 30.921875 
z
M 23.09375 0.390625 
C 10.796875 0.390625 10.796875 18.9375 10.796875 22.65625 
C 10.796875 29.90625 14.203125 40.390625 23.5 40.390625 
C 25.203125 40.390625 30.09375 40.390625 33.40625 33.4375 
C 35.203125 29.515625 35.203125 25.375 35.203125 20.34375 
C 35.203125 14.90625 35.203125 10.875 33.09375 6.84375 
C 30.90625 2.703125 27.703125 0.390625 23.09375 0.390625 
z
" id="CMR17-54"/>
      </defs>
      <g transform="translate(163.810346 317.835317)scale(0.1 -0.1)">
       <use transform="scale(0.996264)" xlink:href="#CMR17-54"/>
      </g>
     </g>
    </g>
    <g id="xtick_4">
     <g id="line2d_10">
      <path clip-path="url(#pa8ca7eefd4)" d="M 204.254056 307.416819 
L 204.254056 24.997587 
" style="fill:none;stroke:#666666;stroke-dasharray:2.96,1.28;stroke-dashoffset:0;stroke-width:0.8;"/>
     </g>
     <g id="line2d_11">
      <g>
       <use style="stroke:#000000;" x="204.254056" xlink:href="#m11b2c3cb22" y="307.416819"/>
      </g>
     </g>
     <g id="line2d_12">
      <g>
       <use style="stroke:#000000;" x="204.254056" xlink:href="#m16bb9c4d7b" y="24.997587"/>
      </g>
     </g>
     <g id="text_4">
      <!-- $8$ -->
      <defs>
       <path d="M 27.203125 35.765625 
C 33.5 38.96875 39.90625 43.796875 39.90625 51.53125 
C 39.90625 60.6875 31.09375 66 23 66 
C 13.90625 66 5.90625 59.375 5.90625 50.234375 
C 5.90625 47.71875 6.5 43.390625 10.40625 39.578125 
C 11.40625 38.578125 15.59375 35.5625 18.296875 33.65625 
C 13.796875 31.34375 3.296875 25.8125 3.296875 14.765625 
C 3.296875 4.40625 13.09375 -2 22.796875 -2 
C 33.5 -2 42.5 5.71875 42.5 15.96875 
C 42.5 25.109375 36.40625 29.328125 32.40625 32.046875 
z
M 14.09375 44.609375 
C 13.296875 45.109375 9.296875 48.21875 9.296875 52.9375 
C 9.296875 59.078125 15.59375 63.6875 22.796875 63.6875 
C 30.703125 63.6875 36.5 58.0625 36.5 51.53125 
C 36.5 42.1875 26.09375 36.859375 25.59375 36.859375 
C 25.5 36.859375 25.40625 36.859375 24.59375 37.46875 
z
M 32.5 24 
C 34 22.90625 38.796875 19.578125 38.796875 13.453125 
C 38.796875 6.015625 31.40625 0.390625 23 0.390625 
C 13.90625 0.390625 7 6.921875 7 14.859375 
C 7 22.796875 13.09375 29.4375 20 32.546875 
z
" id="CMR17-56"/>
      </defs>
      <g transform="translate(201.763388 317.835317)scale(0.1 -0.1)">
       <use transform="scale(0.996264)" xlink:href="#CMR17-56"/>
      </g>
     </g>
    </g>
    <g id="xtick_5">
     <g id="line2d_13">
      <path clip-path="url(#pa8ca7eefd4)" d="M 242.207097 307.416819 
L 242.207097 24.997587 
" style="fill:none;stroke:#666666;stroke-dasharray:2.96,1.28;stroke-dashoffset:0;stroke-width:0.8;"/>
     </g>
     <g id="line2d_14">
      <g>
       <use style="stroke:#000000;" x="242.207097" xlink:href="#m11b2c3cb22" y="307.416819"/>
      </g>
     </g>
     <g id="line2d_15">
      <g>
       <use style="stroke:#000000;" x="242.207097" xlink:href="#m16bb9c4d7b" y="24.997587"/>
      </g>
     </g>
     <g id="text_5">
      <!-- $10$ -->
      <defs>
       <path d="M 26.59375 63.796875 
C 26.59375 65.890625 26.5 66 25.09375 66 
C 21.203125 61.359375 15.296875 59.890625 9.703125 59.6875 
C 9.40625 59.6875 8.90625 59.6875 8.796875 59.5 
C 8.703125 59.296875 8.703125 59.09375 8.703125 57 
C 11.796875 57 17 57.59375 21 59.984375 
L 21 7.296875 
C 21 3.796875 20.796875 2.59375 12.203125 2.59375 
L 9.203125 2.59375 
L 9.203125 0 
C 14 0.09375 19 0.1875 23.796875 0.1875 
C 28.59375 0.1875 33.59375 0.09375 38.40625 0 
L 38.40625 2.59375 
L 35.40625 2.59375 
C 26.796875 2.59375 26.59375 3.6875 26.59375 7.296875 
z
" id="CMR17-49"/>
       <path d="M 42 31.84375 
C 42 37.96875 41.90625 48.421875 37.703125 56.453125 
C 34 63.484375 28.09375 66 22.90625 66 
C 18.09375 66 12 63.78125 8.203125 56.5625 
C 4.203125 49.015625 3.796875 39.671875 3.796875 31.84375 
C 3.796875 26.109375 3.90625 17.375 7 9.734375 
C 11.296875 -0.609375 19 -2 22.90625 -2 
C 27.5 -2 34.5 -0.109375 38.59375 9.4375 
C 41.59375 16.375 42 24.5 42 31.84375 
z
M 22.90625 -0.40625 
C 16.5 -0.40625 12.703125 5.125 11.296875 12.75 
C 10.203125 18.6875 10.203125 27.328125 10.203125 32.953125 
C 10.203125 40.6875 10.203125 47.109375 11.5 53.234375 
C 13.40625 61.78125 19 64.390625 22.90625 64.390625 
C 27 64.390625 32.296875 61.671875 34.203125 53.4375 
C 35.5 47.71875 35.59375 40.984375 35.59375 32.953125 
C 35.59375 26.421875 35.59375 18.375 34.40625 12.453125 
C 32.296875 1.5 26.40625 -0.40625 22.90625 -0.40625 
z
" id="CMR17-48"/>
      </defs>
      <g transform="translate(237.225762 317.835317)scale(0.1 -0.1)">
       <use transform="scale(0.996264)" xlink:href="#CMR17-49"/>
       <use transform="translate(45.690477 0)scale(0.996264)" xlink:href="#CMR17-48"/>
      </g>
     </g>
    </g>
    <g id="xtick_6">
     <g id="line2d_16">
      <path clip-path="url(#pa8ca7eefd4)" d="M 280.160139 307.416819 
L 280.160139 24.997587 
" style="fill:none;stroke:#666666;stroke-dasharray:2.96,1.28;stroke-dashoffset:0;stroke-width:0.8;"/>
     </g>
     <g id="line2d_17">
      <g>
       <use style="stroke:#000000;" x="280.160139" xlink:href="#m11b2c3cb22" y="307.416819"/>
      </g>
     </g>
     <g id="line2d_18">
      <g>
       <use style="stroke:#000000;" x="280.160139" xlink:href="#m16bb9c4d7b" y="24.997587"/>
      </g>
     </g>
     <g id="text_6">
      <!-- $12$ -->
      <g transform="translate(275.178804 317.835317)scale(0.1 -0.1)">
       <use transform="scale(0.996264)" xlink:href="#CMR17-49"/>
       <use transform="translate(45.690477 0)scale(0.996264)" xlink:href="#CMR17-50"/>
      </g>
     </g>
    </g>
    <g id="xtick_7">
     <g id="line2d_19">
      <path clip-path="url(#pa8ca7eefd4)" d="M 318.11318 307.416819 
L 318.11318 24.997587 
" style="fill:none;stroke:#666666;stroke-dasharray:2.96,1.28;stroke-dashoffset:0;stroke-width:0.8;"/>
     </g>
     <g id="line2d_20">
      <g>
       <use style="stroke:#000000;" x="318.11318" xlink:href="#m11b2c3cb22" y="307.416819"/>
      </g>
     </g>
     <g id="line2d_21">
      <g>
       <use style="stroke:#000000;" x="318.11318" xlink:href="#m16bb9c4d7b" y="24.997587"/>
      </g>
     </g>
     <g id="text_7">
      <!-- $14$ -->
      <g transform="translate(313.131845 317.835317)scale(0.1 -0.1)">
       <use transform="scale(0.996264)" xlink:href="#CMR17-49"/>
       <use transform="translate(45.690477 0)scale(0.996264)" xlink:href="#CMR17-52"/>
      </g>
     </g>
    </g>
    <g id="xtick_8">
     <g id="line2d_22">
      <path clip-path="url(#pa8ca7eefd4)" d="M 356.066222 307.416819 
L 356.066222 24.997587 
" style="fill:none;stroke:#666666;stroke-dasharray:2.96,1.28;stroke-dashoffset:0;stroke-width:0.8;"/>
     </g>
     <g id="line2d_23">
      <g>
       <use style="stroke:#000000;" x="356.066222" xlink:href="#m11b2c3cb22" y="307.416819"/>
      </g>
     </g>
     <g id="line2d_24">
      <g>
       <use style="stroke:#000000;" x="356.066222" xlink:href="#m16bb9c4d7b" y="24.997587"/>
      </g>
     </g>
     <g id="text_8">
      <!-- $16$ -->
      <g transform="translate(351.084887 317.835317)scale(0.1 -0.1)">
       <use transform="scale(0.996264)" xlink:href="#CMR17-49"/>
       <use transform="translate(45.690477 0)scale(0.996264)" xlink:href="#CMR17-54"/>
      </g>
     </g>
    </g>
    <g id="xtick_9">
     <g id="line2d_25">
      <path clip-path="url(#pa8ca7eefd4)" d="M 394.019264 307.416819 
L 394.019264 24.997587 
" style="fill:none;stroke:#666666;stroke-dasharray:2.96,1.28;stroke-dashoffset:0;stroke-width:0.8;"/>
     </g>
     <g id="line2d_26">
      <g>
       <use style="stroke:#000000;" x="394.019264" xlink:href="#m11b2c3cb22" y="307.416819"/>
      </g>
     </g>
     <g id="line2d_27">
      <g>
       <use style="stroke:#000000;" x="394.019264" xlink:href="#m16bb9c4d7b" y="24.997587"/>
      </g>
     </g>
     <g id="text_9">
      <!-- $18$ -->
      <g transform="translate(389.037928 317.835317)scale(0.1 -0.1)">
       <use transform="scale(0.996264)" xlink:href="#CMR17-49"/>
       <use transform="translate(45.690477 0)scale(0.996264)" xlink:href="#CMR17-56"/>
      </g>
     </g>
    </g>
    <g id="xtick_10">
     <g id="line2d_28">
      <path clip-path="url(#pa8ca7eefd4)" d="M 431.972305 307.416819 
L 431.972305 24.997587 
" style="fill:none;stroke:#666666;stroke-dasharray:2.96,1.28;stroke-dashoffset:0;stroke-width:0.8;"/>
     </g>
     <g id="line2d_29">
      <g>
       <use style="stroke:#000000;" x="431.972305" xlink:href="#m11b2c3cb22" y="307.416819"/>
      </g>
     </g>
     <g id="line2d_30">
      <g>
       <use style="stroke:#000000;" x="431.972305" xlink:href="#m16bb9c4d7b" y="24.997587"/>
      </g>
     </g>
     <g id="text_10">
      <!-- $20$ -->
      <g transform="translate(426.99097 317.835317)scale(0.1 -0.1)">
       <use transform="scale(0.996264)" xlink:href="#CMR17-50"/>
       <use transform="translate(45.690477 0)scale(0.996264)" xlink:href="#CMR17-48"/>
      </g>
     </g>
    </g>
    <g id="xtick_11">
     <g id="line2d_31">
      <path clip-path="url(#pa8ca7eefd4)" d="M 71.41841 307.416819 
L 71.41841 24.997587 
" style="fill:none;stroke:#999999;stroke-dasharray:2.96,1.28;stroke-dashoffset:0;stroke-opacity:0.2;stroke-width:0.8;"/>
     </g>
     <g id="line2d_32">
      <defs>
       <path d="M 0 0 
L 0 -2 
" id="me067f2f42f" style="stroke:#000000;"/>
      </defs>
      <g>
       <use style="stroke:#000000;" x="71.41841" xlink:href="#me067f2f42f" y="307.416819"/>
      </g>
     </g>
     <g id="line2d_33">
      <defs>
       <path d="M 0 0 
L 0 2 
" id="m2486a48ea0" style="stroke:#000000;"/>
      </defs>
      <g>
       <use style="stroke:#000000;" x="71.41841" xlink:href="#m2486a48ea0" y="24.997587"/>
      </g>
     </g>
    </g>
    <g id="xtick_12">
     <g id="line2d_34">
      <path clip-path="url(#pa8ca7eefd4)" d="M 109.371451 307.416819 
L 109.371451 24.997587 
" style="fill:none;stroke:#999999;stroke-dasharray:2.96,1.28;stroke-dashoffset:0;stroke-opacity:0.2;stroke-width:0.8;"/>
     </g>
     <g id="line2d_35">
      <g>
       <use style="stroke:#000000;" x="109.371451" xlink:href="#me067f2f42f" y="307.416819"/>
      </g>
     </g>
     <g id="line2d_36">
      <g>
       <use style="stroke:#000000;" x="109.371451" xlink:href="#m2486a48ea0" y="24.997587"/>
      </g>
     </g>
    </g>
    <g id="xtick_13">
     <g id="line2d_37">
      <path clip-path="url(#pa8ca7eefd4)" d="M 147.324493 307.416819 
L 147.324493 24.997587 
" style="fill:none;stroke:#999999;stroke-dasharray:2.96,1.28;stroke-dashoffset:0;stroke-opacity:0.2;stroke-width:0.8;"/>
     </g>
     <g id="line2d_38">
      <g>
       <use style="stroke:#000000;" x="147.324493" xlink:href="#me067f2f42f" y="307.416819"/>
      </g>
     </g>
     <g id="line2d_39">
      <g>
       <use style="stroke:#000000;" x="147.324493" xlink:href="#m2486a48ea0" y="24.997587"/>
      </g>
     </g>
    </g>
    <g id="xtick_14">
     <g id="line2d_40">
      <path clip-path="url(#pa8ca7eefd4)" d="M 185.277535 307.416819 
L 185.277535 24.997587 
" style="fill:none;stroke:#999999;stroke-dasharray:2.96,1.28;stroke-dashoffset:0;stroke-opacity:0.2;stroke-width:0.8;"/>
     </g>
     <g id="line2d_41">
      <g>
       <use style="stroke:#000000;" x="185.277535" xlink:href="#me067f2f42f" y="307.416819"/>
      </g>
     </g>
     <g id="line2d_42">
      <g>
       <use style="stroke:#000000;" x="185.277535" xlink:href="#m2486a48ea0" y="24.997587"/>
      </g>
     </g>
    </g>
    <g id="xtick_15">
     <g id="line2d_43">
      <path clip-path="url(#pa8ca7eefd4)" d="M 223.230576 307.416819 
L 223.230576 24.997587 
" style="fill:none;stroke:#999999;stroke-dasharray:2.96,1.28;stroke-dashoffset:0;stroke-opacity:0.2;stroke-width:0.8;"/>
     </g>
     <g id="line2d_44">
      <g>
       <use style="stroke:#000000;" x="223.230576" xlink:href="#me067f2f42f" y="307.416819"/>
      </g>
     </g>
     <g id="line2d_45">
      <g>
       <use style="stroke:#000000;" x="223.230576" xlink:href="#m2486a48ea0" y="24.997587"/>
      </g>
     </g>
    </g>
    <g id="xtick_16">
     <g id="line2d_46">
      <path clip-path="url(#pa8ca7eefd4)" d="M 261.183618 307.416819 
L 261.183618 24.997587 
" style="fill:none;stroke:#999999;stroke-dasharray:2.96,1.28;stroke-dashoffset:0;stroke-opacity:0.2;stroke-width:0.8;"/>
     </g>
     <g id="line2d_47">
      <g>
       <use style="stroke:#000000;" x="261.183618" xlink:href="#me067f2f42f" y="307.416819"/>
      </g>
     </g>
     <g id="line2d_48">
      <g>
       <use style="stroke:#000000;" x="261.183618" xlink:href="#m2486a48ea0" y="24.997587"/>
      </g>
     </g>
    </g>
    <g id="xtick_17">
     <g id="line2d_49">
      <path clip-path="url(#pa8ca7eefd4)" d="M 299.13666 307.416819 
L 299.13666 24.997587 
" style="fill:none;stroke:#999999;stroke-dasharray:2.96,1.28;stroke-dashoffset:0;stroke-opacity:0.2;stroke-width:0.8;"/>
     </g>
     <g id="line2d_50">
      <g>
       <use style="stroke:#000000;" x="299.13666" xlink:href="#me067f2f42f" y="307.416819"/>
      </g>
     </g>
     <g id="line2d_51">
      <g>
       <use style="stroke:#000000;" x="299.13666" xlink:href="#m2486a48ea0" y="24.997587"/>
      </g>
     </g>
    </g>
    <g id="xtick_18">
     <g id="line2d_52">
      <path clip-path="url(#pa8ca7eefd4)" d="M 337.089701 307.416819 
L 337.089701 24.997587 
" style="fill:none;stroke:#999999;stroke-dasharray:2.96,1.28;stroke-dashoffset:0;stroke-opacity:0.2;stroke-width:0.8;"/>
     </g>
     <g id="line2d_53">
      <g>
       <use style="stroke:#000000;" x="337.089701" xlink:href="#me067f2f42f" y="307.416819"/>
      </g>
     </g>
     <g id="line2d_54">
      <g>
       <use style="stroke:#000000;" x="337.089701" xlink:href="#m2486a48ea0" y="24.997587"/>
      </g>
     </g>
    </g>
    <g id="xtick_19">
     <g id="line2d_55">
      <path clip-path="url(#pa8ca7eefd4)" d="M 375.042743 307.416819 
L 375.042743 24.997587 
" style="fill:none;stroke:#999999;stroke-dasharray:2.96,1.28;stroke-dashoffset:0;stroke-opacity:0.2;stroke-width:0.8;"/>
     </g>
     <g id="line2d_56">
      <g>
       <use style="stroke:#000000;" x="375.042743" xlink:href="#me067f2f42f" y="307.416819"/>
      </g>
     </g>
     <g id="line2d_57">
      <g>
       <use style="stroke:#000000;" x="375.042743" xlink:href="#m2486a48ea0" y="24.997587"/>
      </g>
     </g>
    </g>
    <g id="xtick_20">
     <g id="line2d_58">
      <path clip-path="url(#pa8ca7eefd4)" d="M 412.995784 307.416819 
L 412.995784 24.997587 
" style="fill:none;stroke:#999999;stroke-dasharray:2.96,1.28;stroke-dashoffset:0;stroke-opacity:0.2;stroke-width:0.8;"/>
     </g>
     <g id="line2d_59">
      <g>
       <use style="stroke:#000000;" x="412.995784" xlink:href="#me067f2f42f" y="307.416819"/>
      </g>
     </g>
     <g id="line2d_60">
      <g>
       <use style="stroke:#000000;" x="412.995784" xlink:href="#m2486a48ea0" y="24.997587"/>
      </g>
     </g>
    </g>
    <g id="text_11">
     <!-- Grado di iterazione -->
     <defs>
      <path d="M 62.09375 19.65625 
C 62.09375 23.484375 62.40625 24 68.59375 24 
L 68.59375 26.59375 
C 66.203125 26.390625 60.796875 26.390625 58.09375 26.390625 
C 55.296875 26.390625 47.5 26.5 43.703125 26.59375 
L 43.703125 24 
L 46.703125 24 
C 55.296875 24 55.5 22.875 55.5 19.25 
L 55.5 12.59375 
C 55.5 1.5 42.5 0.59375 39.40625 0.59375 
C 29.09375 0.59375 12.203125 7.75 12.203125 34.046875 
C 12.203125 60.34375 28.796875 67.390625 38.5 67.390625 
C 49.796875 67.390625 58 57.515625 59.90625 43.515625 
C 60.09375 42.3125 60.09375 42.109375 61 42.109375 
C 62.09375 42.109375 62.09375 42.3125 62.09375 44.125 
L 62.09375 67.984375 
C 62.09375 69.796875 62 69.890625 61.40625 69.890625 
C 61 69.890625 60.90625 69.796875 60.203125 68.59375 
L 55.796875 60.140625 
C 50.90625 66.390625 44.90625 70 37.203125 70 
C 20.09375 70 4.59375 54.796875 4.59375 34.046875 
C 4.59375 13.40625 19.796875 -2 37.40625 -2 
C 45.5 -2 53.40625 0.890625 56.5 6.640625 
C 58.203125 2.515625 61 -0.3125 61.5 -0.3125 
C 62 -0.3125 62.09375 -0.203125 62.09375 1.59375 
z
" id="CMR17-71"/>
      <path d="M 15 23.703125 
C 15 33.34375 19.09375 42.390625 26.59375 42.390625 
C 27.296875 42.390625 28 42.296875 28.703125 41.984375 
C 28.703125 41.984375 26.5 41.28125 26.5 38.671875 
C 26.5 36.265625 28.40625 35.265625 29.90625 35.265625 
C 31.09375 35.265625 33.296875 35.96875 33.296875 38.78125 
C 33.296875 41.984375 30.09375 44 26.703125 44 
C 19.09375 44 15.796875 36.5625 14.796875 33.046875 
L 14.703125 33.046875 
L 14.703125 44 
L 3.09375 42.890625 
L 3.09375 40.28125 
C 9 40.28125 9.90625 39.6875 9.90625 34.859375 
L 9.90625 6.921875 
C 9.90625 3.09375 9.5 2.59375 3.09375 2.59375 
L 3.09375 0 
C 5.5 0.1875 10.09375 0.1875 12.703125 0.1875 
C 15.59375 0.1875 20.703125 0.1875 23.40625 0 
L 23.40625 2.59375 
C 16.203125 2.59375 15 2.59375 15 7.109375 
z
" id="CMR17-114"/>
      <path d="M 36 25.875 
C 36 32 36 35.546875 31.796875 39.59375 
C 28.09375 42.984375 23.796875 44 20.40625 44 
C 12.5 44 6.796875 37.625 6.796875 30.890625 
C 6.796875 27.1875 9.796875 27 10.40625 27 
C 11.703125 27 14 27.796875 14 30.59375 
C 14 33.09375 12.09375 34.1875 10.40625 34.1875 
C 10 34.1875 9.5 34.09375 9.203125 34 
C 11.296875 40.53125 16.703125 42.390625 20.203125 42.390625 
C 25.203125 42.390625 30.703125 37.828125 30.703125 29.296875 
L 30.703125 25.5 
C 24.796875 25.296875 17.703125 24.5 12.09375 21.453125 
C 5.796875 17.921875 4 12.84375 4 9 
C 4 1.203125 13 -1 18.296875 -1 
C 23.796875 -1 28.90625 2.109375 31.09375 7.890625 
C 31.296875 3.421875 34.09375 -0.609375 38.5 -0.609375 
C 40.59375 -0.609375 45.90625 0.796875 45.90625 8.796875 
L 45.90625 14.46875 
L 44.09375 14.46875 
L 44.09375 8.703125 
C 44.09375 2.515625 41.40625 1.703125 40.09375 1.703125 
C 36 1.703125 36 6.96875 36 11.4375 
z
M 30.703125 13.859375 
C 30.703125 5.046875 24.5 0.59375 19 0.59375 
C 14 0.59375 10.09375 4.34375 10.09375 9 
C 10.09375 12.046875 11.40625 17.40625 17.203125 20.65625 
C 22 23.390625 27.5 23.796875 30.703125 24 
z
" id="CMR17-97"/>
      <path d="M 29.203125 67.890625 
L 29.203125 65.296875 
C 35.09375 65.296875 36 64.703125 36 60.046875 
L 36 37.046875 
C 35.59375 37.546875 31.5 44 23.40625 44 
C 13.203125 44 3.296875 34.8125 3.296875 21.5 
C 3.296875 8.265625 12.59375 -1 22.40625 -1 
C 30.90625 -1 35.296875 5.640625 35.796875 6.34375 
L 35.796875 -1 
L 47.90625 -0.203125 
L 47.90625 2.40625 
C 42 2.40625 41.09375 3.015625 41.09375 7.859375 
L 41.09375 69 
z
M 35.796875 11.90625 
C 35.796875 8.875 34 6.140625 31.703125 4.125 
C 28.296875 1.09375 24.90625 0.59375 23 0.59375 
C 20.09375 0.59375 9.703125 2.109375 9.703125 21.390625 
C 9.703125 41.1875 21.296875 42.390625 23.90625 42.390625 
C 28.5 42.390625 32.203125 39.765625 34.5 36.140625 
C 35.796875 34.015625 35.796875 33.703125 35.796875 31.890625 
z
" id="CMR17-100"/>
      <path d="M 43.09375 21.1875 
C 43.09375 34 33.796875 44 22.90625 44 
C 12 44 2.703125 34 2.703125 21.1875 
C 2.703125 8.59375 12 -1 22.90625 -1 
C 33.796875 -1 43.09375 8.59375 43.09375 21.1875 
z
M 22.90625 0.796875 
C 18.203125 0.796875 14.203125 3.59375 11.90625 7.5 
C 9.40625 12 9.09375 17.59375 9.09375 22 
C 9.09375 26.1875 9.296875 31.390625 11.90625 35.890625 
C 13.90625 39.1875 17.796875 42.390625 22.90625 42.390625 
C 27.40625 42.390625 31.203125 39.890625 33.59375 36.390625 
C 36.703125 31.6875 36.703125 25.09375 36.703125 22 
C 36.703125 18.09375 36.5 12.09375 33.796875 7.296875 
C 31 2.6875 26.703125 0.796875 22.90625 0.796875 
z
" id="CMR17-111"/>
      <path d="M 15.5 61.890625 
C 15.5 64.09375 13.703125 66 11.40625 66 
C 9.203125 66 7.296875 64.1875 7.296875 61.890625 
C 7.296875 59.6875 9.09375 57.796875 11.40625 57.796875 
C 13.59375 57.796875 15.5 59.59375 15.5 61.890625 
z
M 3.796875 42.890625 
L 3.796875 40.296875 
C 9.40625 40.296875 10.203125 39.6875 10.203125 34.859375 
L 10.203125 6.921875 
C 10.203125 3.09375 9.796875 2.59375 3.40625 2.59375 
L 3.40625 0 
C 5.796875 0.1875 10.09375 0.1875 12.59375 0.1875 
C 15 0.1875 19.09375 0.1875 21.40625 0 
L 21.40625 2.59375 
C 15.5 2.59375 15.296875 3.203125 15.296875 6.8125 
L 15.296875 44 
z
" id="CMR17-105"/>
      <path d="M 15.09375 40.390625 
L 29.09375 40.390625 
L 29.09375 43 
L 15.09375 43 
L 15.09375 62 
L 13.296875 62 
C 13.09375 51.4375 9.59375 42.1875 1.09375 41.984375 
L 1.09375 40.390625 
L 9.796875 40.390625 
L 9.796875 12.15625 
C 9.796875 10.234375 9.796875 -1 21.40625 -1 
C 27.296875 -1 30.703125 4.8125 30.703125 12.25 
L 30.703125 17.984375 
L 28.90625 17.984375 
L 28.90625 12.34375 
C 28.90625 5.421875 26.203125 0.796875 22 0.796875 
C 19.09375 0.796875 15.09375 2.796875 15.09375 11.953125 
z
" id="CMR17-116"/>
      <path d="M 38.09375 23.484375 
C 38.5 23.890625 38.5 24.09375 38.5 25.09375 
C 38.5 35.171875 33.09375 44 21.703125 44 
C 11.09375 44 2.703125 33.984375 2.703125 21.78125 
C 2.703125 8.65625 12.203125 -1 22.796875 -1 
C 34 -1 38.40625 9.671875 38.40625 11.796875 
C 38.40625 12.5 37.796875 12.5 37.59375 12.5 
C 36.90625 12.5 36.796875 12.296875 36.40625 11.078125 
C 34.203125 4.21875 28.703125 0.796875 23.5 0.796875 
C 19.203125 0.796875 14.90625 3.21875 12.203125 7.65625 
C 9.09375 12.796875 9.09375 18.75 9.09375 23.484375 
z
M 9.203125 25 
C 9.90625 39.234375 17.59375 42.390625 21.59375 42.390625 
C 28.40625 42.390625 33 36.0625 33.09375 25 
z
" id="CMR17-101"/>
      <path d="M 36.09375 40.6875 
C 36.90625 41.6875 36.90625 41.890625 36.90625 42.09375 
C 36.90625 43 36.5 43 34.703125 43 
L 4.296875 43 
L 3.296875 27.5 
L 5.09375 27.5 
C 5.796875 37.1875 6.90625 41.390625 18.40625 41.390625 
L 30.59375 41.390625 
L 2 1.5 
C 2 0.09375 2.09375 0 4.203125 0 
L 35.796875 0 
L 37.203125 18 
L 35.40625 18 
C 34.59375 6.890625 33.296875 1.796875 21.09375 1.796875 
L 8.296875 1.796875 
z
" id="CMR17-122"/>
      <path d="M 41.5 30.53125 
C 41.5 35.65625 40.5 44 28.703125 44 
C 20.796875 44 16.703125 37.875 15.203125 33.84375 
L 15.09375 33.84375 
L 15.09375 44 
L 3.296875 42.890625 
L 3.296875 40.28125 
C 9.203125 40.28125 10.09375 39.6875 10.09375 34.859375 
L 10.09375 6.921875 
C 10.09375 3.09375 9.703125 2.59375 3.296875 2.59375 
L 3.296875 0 
C 5.703125 0.1875 10.09375 0.1875 12.703125 0.1875 
C 15.296875 0.1875 19.796875 0.1875 22.203125 0 
L 22.203125 2.59375 
C 15.796875 2.59375 15.40625 3 15.40625 6.921875 
L 15.40625 26.21875 
C 15.40625 35.453125 21 42.390625 28 42.390625 
C 35.40625 42.390625 36.203125 35.765625 36.203125 30.9375 
L 36.203125 6.921875 
C 36.203125 3.09375 35.796875 2.59375 29.40625 2.59375 
L 29.40625 0 
C 31.796875 0.1875 36.203125 0.1875 38.796875 0.1875 
C 41.40625 0.1875 45.90625 0.1875 48.296875 0 
L 48.296875 2.59375 
C 41.90625 2.59375 41.5 3 41.5 6.921875 
z
" id="CMR17-110"/>
     </defs>
     <g transform="translate(324.338611 331.382843)scale(0.11 -0.11)">
      <use transform="scale(0.996264)" xlink:href="#CMR17-71"/>
      <use transform="translate(72.355346 0)scale(0.996264)" xlink:href="#CMR17-114"/>
      <use transform="translate(107.636114 0)scale(0.996264)" xlink:href="#CMR17-97"/>
      <use transform="translate(153.326591 0)scale(0.996264)" xlink:href="#CMR17-100"/>
      <use transform="translate(204.221961 0)scale(0.996264)" xlink:href="#CMR17-111"/>
      <use transform="translate(279.988404 0)scale(0.996264)" xlink:href="#CMR17-100"/>
      <use transform="translate(330.883774 0)scale(0.996264)" xlink:href="#CMR17-105"/>
      <use transform="translate(385.830799 0)scale(0.996264)" xlink:href="#CMR17-105"/>
      <use transform="translate(410.701857 0)scale(0.996264)" xlink:href="#CMR17-116"/>
      <use transform="translate(445.982625 0)scale(0.996264)" xlink:href="#CMR17-101"/>
      <use transform="translate(486.468285 0)scale(0.996264)" xlink:href="#CMR17-114"/>
      <use transform="translate(521.749053 0)scale(0.996264)" xlink:href="#CMR17-97"/>
      <use transform="translate(567.43953 0)scale(0.996264)" xlink:href="#CMR17-122"/>
      <use transform="translate(607.925191 0)scale(0.996264)" xlink:href="#CMR17-105"/>
      <use transform="translate(632.796249 0)scale(0.996264)" xlink:href="#CMR17-111"/>
      <use transform="translate(678.486726 0)scale(0.996264)" xlink:href="#CMR17-110"/>
      <use transform="translate(729.382096 0)scale(0.996264)" xlink:href="#CMR17-101"/>
     </g>
    </g>
   </g>
   <g id="matplotlib.axis_2">
    <g id="ytick_1">
     <g id="line2d_61">
      <path clip-path="url(#pa8ca7eefd4)" d="M 53.390715 287.03912 
L 450 287.03912 
" style="fill:none;stroke:#666666;stroke-dasharray:2.96,1.28;stroke-dashoffset:0;stroke-width:0.8;"/>
     </g>
     <g id="line2d_62">
      <defs>
       <path d="M 0 0 
L 5 0 
" id="m1b3c410f12" style="stroke:#000000;"/>
      </defs>
      <g>
       <use style="stroke:#000000;" x="53.390715" xlink:href="#m1b3c410f12" y="287.03912"/>
      </g>
     </g>
     <g id="line2d_63">
      <defs>
       <path d="M 0 0 
L -5 0 
" id="mbc1bbbe9c9" style="stroke:#000000;"/>
      </defs>
      <g>
       <use style="stroke:#000000;" x="450" xlink:href="#mbc1bbbe9c9" y="287.03912"/>
      </g>
     </g>
     <g id="text_12">
      <!-- $10^{-15}$ -->
      <defs>
       <path d="M 65.90625 23 
C 67.59375 23 69.40625 23 69.40625 25 
C 69.40625 27 67.59375 27 65.90625 27 
L 11.796875 27 
C 10.09375 27 8.296875 27 8.296875 25 
C 8.296875 23 10.09375 23 11.796875 23 
z
" id="CMSY10-0"/>
       <path d="M 11.40625 58.59375 
C 12.40625 58.1875 16.5 56.890625 20.703125 56.890625 
C 30 56.890625 35.09375 61.890625 38 64.6875 
C 38 65.484375 38 66 37.40625 66 
C 37.296875 66 37.09375 66 36.296875 65.59375 
C 32.796875 64.09375 28.703125 63 23.703125 63 
C 20.703125 63 16.203125 63.359375 11.296875 65.484375 
C 10.203125 66 10 66 9.90625 66 
C 9.40625 66 9.296875 65.890625 9.296875 63.90625 
L 9.296875 34.859375 
C 9.296875 33.015625 9.296875 32.5 10.296875 32.5 
C 10.796875 32.5 11 32.703125 11.5 33.421875 
C 14.703125 38.046875 19.09375 40 24.09375 40 
C 27.59375 40 35.09375 37.734375 35.09375 20.203125 
C 35.09375 16.984375 35.09375 11.1875 32.09375 6.59375 
C 29.59375 2.484375 25.703125 0.390625 21.40625 0.390625 
C 14.796875 0.390625 8.09375 4.984375 6.296875 12.6875 
C 6.703125 12.59375 7.5 12.390625 7.90625 12.390625 
C 9.203125 12.390625 11.703125 13.09375 11.703125 16.1875 
C 11.703125 18.890625 9.796875 20 7.90625 20 
C 5.59375 20 4.09375 18.59375 4.09375 15.796875 
C 4.09375 7.09375 11 -2 21.59375 -2 
C 31.90625 -2 41.703125 6.890625 41.703125 19.796875 
C 41.703125 32.09375 33.90625 41.59375 24.203125 41.59375 
C 19.09375 41.59375 14.796875 39.6875 11.40625 36 
z
" id="CMR17-53"/>
      </defs>
      <g transform="translate(25.758904 290.49837)scale(0.1 -0.1)">
       <use transform="scale(0.996264)" xlink:href="#CMR17-49"/>
       <use transform="translate(45.690477 0)scale(0.996264)" xlink:href="#CMR17-48"/>
       <use transform="translate(91.380954 36.153639)scale(0.697382)" xlink:href="#CMSY10-0"/>
       <use transform="translate(145.621947 36.153639)scale(0.697382)" xlink:href="#CMR17-49"/>
       <use transform="translate(177.605129 36.153639)scale(0.697382)" xlink:href="#CMR17-53"/>
      </g>
     </g>
    </g>
    <g id="ytick_2">
     <g id="line2d_64">
      <path clip-path="url(#pa8ca7eefd4)" d="M 53.390715 255.453956 
L 450 255.453956 
" style="fill:none;stroke:#666666;stroke-dasharray:2.96,1.28;stroke-dashoffset:0;stroke-width:0.8;"/>
     </g>
     <g id="line2d_65">
      <g>
       <use style="stroke:#000000;" x="53.390715" xlink:href="#m1b3c410f12" y="255.453956"/>
      </g>
     </g>
     <g id="line2d_66">
      <g>
       <use style="stroke:#000000;" x="450" xlink:href="#mbc1bbbe9c9" y="255.453956"/>
      </g>
     </g>
     <g id="text_13">
      <!-- $10^{-13}$ -->
      <defs>
       <path d="M 22.09375 34 
C 31 34 34.90625 26.140625 34.90625 17.09375 
C 34.90625 5.03125 28.5 0.390625 22.703125 0.390625 
C 17.40625 0.390625 8.796875 3.015625 6.09375 10.796875 
C 6.59375 10.59375 7.09375 10.59375 7.59375 10.59375 
C 10 10.59375 11.796875 12.1875 11.796875 14.796875 
C 11.796875 17.6875 9.59375 19 7.59375 19 
C 5.90625 19 3.296875 18.1875 3.296875 14.484375 
C 3.296875 5.234375 12.296875 -2 22.90625 -2 
C 34 -2 42.5 6.75 42.5 16.984375 
C 42.5 26.84375 34.5 34 25 35.09375 
C 32.59375 36.671875 39.90625 43.375 39.90625 52.390625 
C 39.90625 60.25 32 66 23 66 
C 13.90625 66 5.90625 60.34375 5.90625 52.296875 
C 5.90625 48.796875 8.5 48.1875 9.796875 48.1875 
C 11.90625 48.1875 13.703125 49.484375 13.703125 52.09375 
C 13.703125 54.6875 11.90625 56 9.796875 56 
C 9.40625 56 8.90625 56 8.5 55.796875 
C 11.40625 62.484375 19.296875 63.6875 22.796875 63.6875 
C 26.296875 63.6875 32.90625 61.96875 32.90625 52.296875 
C 32.90625 49.484375 32.5 44.546875 29.09375 40.21875 
C 26.09375 36.390625 22.703125 36.1875 19.40625 35.890625 
C 18.90625 35.890625 16.59375 35.6875 16.203125 35.6875 
C 15.5 35.59375 15.09375 35.5 15.09375 34.796875 
C 15.09375 34.09375 15.203125 34 17.203125 34 
z
" id="CMR17-51"/>
      </defs>
      <g transform="translate(25.758904 258.913205)scale(0.1 -0.1)">
       <use transform="scale(0.996264)" xlink:href="#CMR17-49"/>
       <use transform="translate(45.690477 0)scale(0.996264)" xlink:href="#CMR17-48"/>
       <use transform="translate(91.380954 36.153639)scale(0.697382)" xlink:href="#CMSY10-0"/>
       <use transform="translate(145.621947 36.153639)scale(0.697382)" xlink:href="#CMR17-49"/>
       <use transform="translate(177.605129 36.153639)scale(0.697382)" xlink:href="#CMR17-51"/>
      </g>
     </g>
    </g>
    <g id="ytick_3">
     <g id="line2d_67">
      <path clip-path="url(#pa8ca7eefd4)" d="M 53.390715 223.868791 
L 450 223.868791 
" style="fill:none;stroke:#666666;stroke-dasharray:2.96,1.28;stroke-dashoffset:0;stroke-width:0.8;"/>
     </g>
     <g id="line2d_68">
      <g>
       <use style="stroke:#000000;" x="53.390715" xlink:href="#m1b3c410f12" y="223.868791"/>
      </g>
     </g>
     <g id="line2d_69">
      <g>
       <use style="stroke:#000000;" x="450" xlink:href="#mbc1bbbe9c9" y="223.868791"/>
      </g>
     </g>
     <g id="text_14">
      <!-- $10^{-11}$ -->
      <g transform="translate(25.758904 227.32804)scale(0.1 -0.1)">
       <use transform="scale(0.996264)" xlink:href="#CMR17-49"/>
       <use transform="translate(45.690477 0)scale(0.996264)" xlink:href="#CMR17-48"/>
       <use transform="translate(91.380954 36.153639)scale(0.697382)" xlink:href="#CMSY10-0"/>
       <use transform="translate(145.621947 36.153639)scale(0.697382)" xlink:href="#CMR17-49"/>
       <use transform="translate(177.605129 36.153639)scale(0.697382)" xlink:href="#CMR17-49"/>
      </g>
     </g>
    </g>
    <g id="ytick_4">
     <g id="line2d_70">
      <path clip-path="url(#pa8ca7eefd4)" d="M 53.390715 192.283626 
L 450 192.283626 
" style="fill:none;stroke:#666666;stroke-dasharray:2.96,1.28;stroke-dashoffset:0;stroke-width:0.8;"/>
     </g>
     <g id="line2d_71">
      <g>
       <use style="stroke:#000000;" x="53.390715" xlink:href="#m1b3c410f12" y="192.283626"/>
      </g>
     </g>
     <g id="line2d_72">
      <g>
       <use style="stroke:#000000;" x="450" xlink:href="#mbc1bbbe9c9" y="192.283626"/>
      </g>
     </g>
     <g id="text_15">
      <!-- $10^{-9}$ -->
      <defs>
       <path d="M 35.203125 29.234375 
C 35.203125 7 26.09375 0.390625 18.59375 0.390625 
C 16.296875 0.390625 10.703125 0.671875 8.40625 4.390625 
C 11 4 12.90625 5.390625 12.90625 7.890625 
C 12.90625 10.59375 10.703125 11.5 9.296875 11.5 
C 8.40625 11.5 5.703125 11.09375 5.703125 7.6875 
C 5.703125 1.0625 11.59375 -2 18.796875 -2 
C 30.296875 -2 42 10.390625 42 32.65625 
C 42 60.265625 30.796875 66 23.203125 66 
C 13.296875 66 3.796875 57.25 3.796875 43.75 
C 3.796875 31.25 11.90625 22 22.09375 22 
C 30.5 22 34.203125 29.84375 35.203125 33.15625 
z
M 22.296875 23.59375 
C 19.59375 23.59375 15.796875 24.09375 12.703125 30.140625 
C 10.59375 34.078125 10.59375 38.703125 10.59375 43.640625 
C 10.59375 49.59375 10.59375 53.71875 13.40625 58.15625 
C 14.796875 60.265625 17.40625 63.6875 23.203125 63.6875 
C 35 63.6875 35 45.453125 35 41.421875 
C 35 34.265625 31.796875 23.59375 22.296875 23.59375 
z
" id="CMR17-57"/>
      </defs>
      <g transform="translate(29.730142 195.742875)scale(0.1 -0.1)">
       <use transform="scale(0.996264)" xlink:href="#CMR17-49"/>
       <use transform="translate(45.690477 0)scale(0.996264)" xlink:href="#CMR17-48"/>
       <use transform="translate(91.380954 36.153639)scale(0.697382)" xlink:href="#CMSY10-0"/>
       <use transform="translate(145.621947 36.153639)scale(0.697382)" xlink:href="#CMR17-57"/>
      </g>
     </g>
    </g>
    <g id="ytick_5">
     <g id="line2d_73">
      <path clip-path="url(#pa8ca7eefd4)" d="M 53.390715 160.698461 
L 450 160.698461 
" style="fill:none;stroke:#666666;stroke-dasharray:2.96,1.28;stroke-dashoffset:0;stroke-width:0.8;"/>
     </g>
     <g id="line2d_74">
      <g>
       <use style="stroke:#000000;" x="53.390715" xlink:href="#m1b3c410f12" y="160.698461"/>
      </g>
     </g>
     <g id="line2d_75">
      <g>
       <use style="stroke:#000000;" x="450" xlink:href="#mbc1bbbe9c9" y="160.698461"/>
      </g>
     </g>
     <g id="text_16">
      <!-- $10^{-7}$ -->
      <defs>
       <path d="M 45.09375 61.796875 
L 45.09375 64 
L 21.59375 64 
C 9.90625 64 9.703125 65.09375 9.296875 67 
L 7.5 67 
L 4.59375 48.5 
L 6.40625 48.5 
C 6.703125 50.40625 7.40625 55.5 8.59375 57.390625 
C 9.203125 58.1875 16.59375 58.1875 18.296875 58.1875 
L 40.296875 58.1875 
L 29.203125 41.71875 
C 21.796875 30.640625 16.703125 15.671875 16.703125 2.59375 
C 16.703125 1.390625 16.703125 -2 20.296875 -2 
C 23.90625 -2 23.90625 1.390625 23.90625 2.6875 
L 23.90625 7.28125 
C 23.90625 23.65625 26.703125 34.4375 31.296875 41.3125 
z
" id="CMR17-55"/>
      </defs>
      <g transform="translate(29.730142 164.15771)scale(0.1 -0.1)">
       <use transform="scale(0.996264)" xlink:href="#CMR17-49"/>
       <use transform="translate(45.690477 0)scale(0.996264)" xlink:href="#CMR17-48"/>
       <use transform="translate(91.380954 36.153639)scale(0.697382)" xlink:href="#CMSY10-0"/>
       <use transform="translate(145.621947 36.153639)scale(0.697382)" xlink:href="#CMR17-55"/>
      </g>
     </g>
    </g>
    <g id="ytick_6">
     <g id="line2d_76">
      <path clip-path="url(#pa8ca7eefd4)" d="M 53.390715 129.113296 
L 450 129.113296 
" style="fill:none;stroke:#666666;stroke-dasharray:2.96,1.28;stroke-dashoffset:0;stroke-width:0.8;"/>
     </g>
     <g id="line2d_77">
      <g>
       <use style="stroke:#000000;" x="53.390715" xlink:href="#m1b3c410f12" y="129.113296"/>
      </g>
     </g>
     <g id="line2d_78">
      <g>
       <use style="stroke:#000000;" x="450" xlink:href="#mbc1bbbe9c9" y="129.113296"/>
      </g>
     </g>
     <g id="text_17">
      <!-- $10^{-5}$ -->
      <g transform="translate(29.730142 132.572545)scale(0.1 -0.1)">
       <use transform="scale(0.996264)" xlink:href="#CMR17-49"/>
       <use transform="translate(45.690477 0)scale(0.996264)" xlink:href="#CMR17-48"/>
       <use transform="translate(91.380954 36.153639)scale(0.697382)" xlink:href="#CMSY10-0"/>
       <use transform="translate(145.621947 36.153639)scale(0.697382)" xlink:href="#CMR17-53"/>
      </g>
     </g>
    </g>
    <g id="ytick_7">
     <g id="line2d_79">
      <path clip-path="url(#pa8ca7eefd4)" d="M 53.390715 97.528131 
L 450 97.528131 
" style="fill:none;stroke:#666666;stroke-dasharray:2.96,1.28;stroke-dashoffset:0;stroke-width:0.8;"/>
     </g>
     <g id="line2d_80">
      <g>
       <use style="stroke:#000000;" x="53.390715" xlink:href="#m1b3c410f12" y="97.528131"/>
      </g>
     </g>
     <g id="line2d_81">
      <g>
       <use style="stroke:#000000;" x="450" xlink:href="#mbc1bbbe9c9" y="97.528131"/>
      </g>
     </g>
     <g id="text_18">
      <!-- $10^{-3}$ -->
      <g transform="translate(29.730142 100.98738)scale(0.1 -0.1)">
       <use transform="scale(0.996264)" xlink:href="#CMR17-49"/>
       <use transform="translate(45.690477 0)scale(0.996264)" xlink:href="#CMR17-48"/>
       <use transform="translate(91.380954 36.153639)scale(0.697382)" xlink:href="#CMSY10-0"/>
       <use transform="translate(145.621947 36.153639)scale(0.697382)" xlink:href="#CMR17-51"/>
      </g>
     </g>
    </g>
    <g id="ytick_8">
     <g id="line2d_82">
      <path clip-path="url(#pa8ca7eefd4)" d="M 53.390715 65.942966 
L 450 65.942966 
" style="fill:none;stroke:#666666;stroke-dasharray:2.96,1.28;stroke-dashoffset:0;stroke-width:0.8;"/>
     </g>
     <g id="line2d_83">
      <g>
       <use style="stroke:#000000;" x="53.390715" xlink:href="#m1b3c410f12" y="65.942966"/>
      </g>
     </g>
     <g id="line2d_84">
      <g>
       <use style="stroke:#000000;" x="450" xlink:href="#mbc1bbbe9c9" y="65.942966"/>
      </g>
     </g>
     <g id="text_19">
      <!-- $10^{-1}$ -->
      <g transform="translate(29.730142 69.402215)scale(0.1 -0.1)">
       <use transform="scale(0.996264)" xlink:href="#CMR17-49"/>
       <use transform="translate(45.690477 0)scale(0.996264)" xlink:href="#CMR17-48"/>
       <use transform="translate(91.380954 36.153639)scale(0.697382)" xlink:href="#CMSY10-0"/>
       <use transform="translate(145.621947 36.153639)scale(0.697382)" xlink:href="#CMR17-49"/>
      </g>
     </g>
    </g>
    <g id="ytick_9">
     <g id="line2d_85">
      <path clip-path="url(#pa8ca7eefd4)" d="M 53.390715 34.357801 
L 450 34.357801 
" style="fill:none;stroke:#666666;stroke-dasharray:2.96,1.28;stroke-dashoffset:0;stroke-width:0.8;"/>
     </g>
     <g id="line2d_86">
      <g>
       <use style="stroke:#000000;" x="53.390715" xlink:href="#m1b3c410f12" y="34.357801"/>
      </g>
     </g>
     <g id="line2d_87">
      <g>
       <use style="stroke:#000000;" x="450" xlink:href="#mbc1bbbe9c9" y="34.357801"/>
      </g>
     </g>
     <g id="text_20">
      <!-- $10^{1}$ -->
      <g transform="translate(35.956807 37.817051)scale(0.1 -0.1)">
       <use transform="scale(0.996264)" xlink:href="#CMR17-49"/>
       <use transform="translate(45.690477 0)scale(0.996264)" xlink:href="#CMR17-48"/>
       <use transform="translate(91.380954 36.153639)scale(0.697382)" xlink:href="#CMR17-49"/>
      </g>
     </g>
    </g>
    <g id="text_21">
     <!-- $I$ - corrente dalla serie [A] -->
     <defs>
      <path d="M 36.796875 60.609375 
C 37.703125 64.09375 37.90625 65.09375 45.203125 65.09375 
C 47.40625 65.09375 48.203125 65.09375 48.203125 66.984375 
C 48.203125 68 47.09375 68 46.796875 68 
C 45 68 42.796875 67.796875 41 67.796875 
L 28.703125 67.796875 
C 26.703125 67.796875 24.40625 68 22.40625 68 
C 21.59375 68 20.5 68 20.5 66.09375 
C 20.5 65.09375 21.296875 65.09375 23.296875 65.09375 
C 29.5 65.09375 29.5 64.296875 29.5 63.203125 
C 29.5 62.5 29.296875 61.90625 29.09375 61.015625 
L 15.59375 7.375 
C 14.703125 3.890625 14.5 2.890625 7.203125 2.890625 
C 5 2.890625 4.09375 2.890625 4.09375 1 
C 4.09375 0 5.09375 0 5.59375 0 
C 7.40625 0 9.59375 0.1875 11.40625 0.1875 
L 23.703125 0.1875 
C 25.703125 0.1875 27.90625 0 29.90625 0 
C 30.703125 0 31.90625 0 31.90625 1.796875 
C 31.90625 2.890625 31.296875 2.890625 29.09375 2.890625 
C 22.90625 2.890625 22.90625 3.6875 22.90625 4.875 
C 22.90625 5.078125 22.90625 5.578125 23.296875 7.171875 
z
" id="CMMI12-73"/>
      <path d="M 25.5 19.59375 
L 25.5 24 
L 0.40625 24 
L 0.40625 19.59375 
z
" id="CMR17-45"/>
      <path d="M 34.90625 35 
C 33 35 30.203125 35 30.203125 31.484375 
C 30.203125 28.6875 32.5 27.890625 33.796875 27.890625 
C 34.5 27.890625 37.40625 28.1875 37.40625 31.6875 
C 37.40625 38.6875 30.59375 44 22.90625 44 
C 12.296875 44 3.296875 34.390625 3.296875 21.546875 
C 3.296875 8.140625 12.703125 -1 22.90625 -1 
C 35.296875 -1 38.40625 10.5625 38.40625 11.671875 
C 38.40625 12.078125 38.296875 12.375 37.59375 12.375 
C 36.90625 12.375 36.796875 12.28125 36.40625 10.96875 
C 33.796875 2.8125 28.09375 0.796875 23.796875 0.796875 
C 17.40625 0.796875 9.703125 6.734375 9.703125 21.640625 
C 9.703125 36.84375 17.09375 42.1875 23 42.1875 
C 26.90625 42.1875 32.703125 40.34375 34.90625 35 
z
" id="CMR17-99"/>
      <path d="M 15.296875 69 
L 3.40625 67.890625 
L 3.40625 65.296875 
C 9.296875 65.296875 10.203125 64.703125 10.203125 59.921875 
L 10.203125 6.859375 
C 10.203125 3.09375 9.796875 2.59375 3.40625 2.59375 
L 3.40625 0 
C 5.796875 0.1875 10.203125 0.1875 12.703125 0.1875 
C 15.296875 0.1875 19.703125 0.1875 22.09375 0 
L 22.09375 2.59375 
C 15.703125 2.59375 15.296875 2.984375 15.296875 6.859375 
z
" id="CMR17-108"/>
      <path d="M 30.90625 42 
C 30.90625 43.796875 30.796875 43.890625 30.203125 43.890625 
C 29.796875 43.890625 29.703125 43.796875 28.5 42.296875 
C 28.203125 41.890625 27.296875 40.890625 27 40.5 
C 23.796875 43.890625 19.296875 44 17.59375 44 
C 6.5 44 2.5 38.1875 2.5 32.390625 
C 2.5 23.390625 12.703125 21.296875 15.59375 20.6875 
C 21.90625 19.390625 24.09375 19 26.203125 17.1875 
C 27.5 16 29.703125 13.796875 29.703125 10.1875 
C 29.703125 6 27.296875 0.59375 18.09375 0.59375 
C 9.40625 0.59375 6.296875 7.1875 4.5 16 
C 4.203125 17.390625 4.203125 17.5 3.40625 17.5 
C 2.59375 17.5 2.5 17.390625 2.5 15.390625 
L 2.5 1 
C 2.5 -0.8125 2.59375 -0.90625 3.203125 -0.90625 
C 3.703125 -0.90625 3.796875 -0.8125 4.296875 0 
C 4.90625 0.890625 6.40625 3.296875 7 4.296875 
C 9 1.59375 12.5 -1 18.09375 -1 
C 28 -1 33.296875 4.390625 33.296875 12.1875 
C 33.296875 17.296875 30.59375 20 29.296875 21.1875 
C 26.296875 24.296875 22.796875 25 18.59375 25.796875 
C 13.09375 27 6.09375 28.390625 6.09375 34.5 
C 6.09375 37.09375 7.5 42.59375 17.59375 42.59375 
C 28.296875 42.59375 28.90625 32.59375 29.09375 29.390625 
C 29.203125 28.890625 29.703125 28.796875 30 28.796875 
C 30.90625 28.796875 30.90625 29.09375 30.90625 30.796875 
z
" id="CMR17-115"/>
      <path d="M 23.5 -25 
L 23.5 -21.5 
L 14.09375 -21.5 
L 14.09375 71.484375 
L 23.5 71.484375 
L 23.5 75 
L 10.59375 75 
L 10.59375 -25 
z
" id="CMR17-91"/>
      <path d="M 36.296875 69.390625 
C 35.796875 70.6875 35.59375 71 34.59375 71 
C 33.59375 71 33.40625 70.6875 32.90625 69.390625 
L 11.703125 9.0625 
C 9.796875 3.6875 5.796875 2.59375 2.296875 2.59375 
L 2.296875 0 
C 4.09375 0.1875 8.09375 0.1875 10 0.1875 
C 12.5 0.1875 16.5 0.1875 18.90625 0 
L 18.90625 2.59375 
C 14.203125 2.796875 13.5 5.96875 13.5 7.171875 
C 13.5 8.0625 13.703125 8.5625 13.90625 9.15625 
L 19.203125 24 
L 45.40625 24 
L 51.40625 7.078125 
C 51.90625 5.875 51.90625 5.671875 51.90625 5.28125 
C 51.90625 2.59375 47.59375 2.59375 45.703125 2.59375 
L 45.703125 0 
C 48.59375 0.1875 53.796875 0.1875 56.90625 0.1875 
C 59.5 0.1875 64.5 0.1875 66.90625 0 
L 66.90625 2.59375 
C 61.59375 2.59375 59.796875 2.59375 58.5 6.28125 
z
M 32.296875 61.3125 
L 44.5 26.59375 
L 20.09375 26.59375 
z
" id="CMR17-65"/>
      <path d="M 14.296875 75 
L 1.40625 75 
L 1.40625 71.484375 
L 10.796875 71.484375 
L 10.796875 -21.5 
L 1.40625 -21.5 
L 1.40625 -25 
L 14.296875 -25 
z
" id="CMR17-93"/>
     </defs>
     <g transform="translate(19.019178 228.787225)rotate(-90)scale(0.11 -0.11)">
      <use transform="scale(0.996264)" xlink:href="#CMMI12-73"/>
      <use transform="translate(80.93248 0)scale(0.996264)" xlink:href="#CMR17-45"/>
      <use transform="translate(141.084413 0)scale(0.996264)" xlink:href="#CMR17-99"/>
      <use transform="translate(181.570074 0)scale(0.996264)" xlink:href="#CMR17-111"/>
      <use transform="translate(227.260551 0)scale(0.996264)" xlink:href="#CMR17-114"/>
      <use transform="translate(262.541318 0)scale(0.996264)" xlink:href="#CMR17-114"/>
      <use transform="translate(297.822086 0)scale(0.996264)" xlink:href="#CMR17-101"/>
      <use transform="translate(338.307747 0)scale(0.996264)" xlink:href="#CMR17-110"/>
      <use transform="translate(386.600663 0)scale(0.996264)" xlink:href="#CMR17-116"/>
      <use transform="translate(421.88143 0)scale(0.996264)" xlink:href="#CMR17-101"/>
      <use transform="translate(492.443057 0)scale(0.996264)" xlink:href="#CMR17-100"/>
      <use transform="translate(543.338427 0)scale(0.996264)" xlink:href="#CMR17-97"/>
      <use transform="translate(589.028904 0)scale(0.996264)" xlink:href="#CMR17-108"/>
      <use transform="translate(613.899963 0)scale(0.996264)" xlink:href="#CMR17-108"/>
      <use transform="translate(638.771021 0)scale(0.996264)" xlink:href="#CMR17-97"/>
      <use transform="translate(714.537464 0)scale(0.996264)" xlink:href="#CMR17-115"/>
      <use transform="translate(750.338802 0)scale(0.996264)" xlink:href="#CMR17-101"/>
      <use transform="translate(790.824463 0)scale(0.996264)" xlink:href="#CMR17-114"/>
      <use transform="translate(826.10523 0)scale(0.996264)" xlink:href="#CMR17-105"/>
      <use transform="translate(850.976289 0)scale(0.996264)" xlink:href="#CMR17-101"/>
      <use transform="translate(921.537916 0)scale(0.996264)" xlink:href="#CMR17-91"/>
      <use transform="translate(946.408974 0)scale(0.996264)" xlink:href="#CMR17-65"/>
      <use transform="translate(1015.481404 0)scale(0.996264)" xlink:href="#CMR17-93"/>
     </g>
    </g>
   </g>
   <g id="line2d_88">
    <path clip-path="url(#pa8ca7eefd4)" d="M 71.41841 58.957117 
L 90.394931 76.77216 
L 109.371451 112.638454 
L 128.347972 184.393902 
L 147.324493 294.579581 
L 166.301014 294.579581 
L 185.277535 294.579581 
L 204.254056 294.579581 
L 223.230576 294.579581 
L 242.207097 294.579581 
L 261.183618 294.579581 
L 280.160139 294.579581 
L 299.13666 294.579581 
L 318.11318 294.579581 
L 337.089701 294.579581 
L 356.066222 294.579581 
L 375.042743 294.579581 
L 394.019264 294.579581 
L 412.995784 294.579581 
L 431.972305 294.579581 
" style="fill:none;stroke:#ff0000;stroke-linecap:square;stroke-width:1.5;"/>
    <defs>
     <path d="M 0 3 
C 0.795609 3 1.55874 2.683901 2.12132 2.12132 
C 2.683901 1.55874 3 0.795609 3 0 
C 3 -0.795609 2.683901 -1.55874 2.12132 -2.12132 
C 1.55874 -2.683901 0.795609 -3 0 -3 
C -0.795609 -3 -1.55874 -2.683901 -2.12132 -2.12132 
C -2.683901 -1.55874 -3 -0.795609 -3 0 
C -3 0.795609 -2.683901 1.55874 -2.12132 2.12132 
C -1.55874 2.683901 -0.795609 3 0 3 
z
" id="m7e0d97c4ad" style="stroke:#ff0000;"/>
    </defs>
    <g clip-path="url(#pa8ca7eefd4)">
     <use style="fill:#ff0000;stroke:#ff0000;" x="71.41841" xlink:href="#m7e0d97c4ad" y="58.957117"/>
     <use style="fill:#ff0000;stroke:#ff0000;" x="90.394931" xlink:href="#m7e0d97c4ad" y="76.77216"/>
     <use style="fill:#ff0000;stroke:#ff0000;" x="109.371451" xlink:href="#m7e0d97c4ad" y="112.638454"/>
     <use style="fill:#ff0000;stroke:#ff0000;" x="128.347972" xlink:href="#m7e0d97c4ad" y="184.393902"/>
     <use style="fill:#ff0000;stroke:#ff0000;" x="147.324493" xlink:href="#m7e0d97c4ad" y="294.579581"/>
     <use style="fill:#ff0000;stroke:#ff0000;" x="166.301014" xlink:href="#m7e0d97c4ad" y="294.579581"/>
     <use style="fill:#ff0000;stroke:#ff0000;" x="185.277535" xlink:href="#m7e0d97c4ad" y="294.579581"/>
     <use style="fill:#ff0000;stroke:#ff0000;" x="204.254056" xlink:href="#m7e0d97c4ad" y="294.579581"/>
     <use style="fill:#ff0000;stroke:#ff0000;" x="223.230576" xlink:href="#m7e0d97c4ad" y="294.579581"/>
     <use style="fill:#ff0000;stroke:#ff0000;" x="242.207097" xlink:href="#m7e0d97c4ad" y="294.579581"/>
     <use style="fill:#ff0000;stroke:#ff0000;" x="261.183618" xlink:href="#m7e0d97c4ad" y="294.579581"/>
     <use style="fill:#ff0000;stroke:#ff0000;" x="280.160139" xlink:href="#m7e0d97c4ad" y="294.579581"/>
     <use style="fill:#ff0000;stroke:#ff0000;" x="299.13666" xlink:href="#m7e0d97c4ad" y="294.579581"/>
     <use style="fill:#ff0000;stroke:#ff0000;" x="318.11318" xlink:href="#m7e0d97c4ad" y="294.579581"/>
     <use style="fill:#ff0000;stroke:#ff0000;" x="337.089701" xlink:href="#m7e0d97c4ad" y="294.579581"/>
     <use style="fill:#ff0000;stroke:#ff0000;" x="356.066222" xlink:href="#m7e0d97c4ad" y="294.579581"/>
     <use style="fill:#ff0000;stroke:#ff0000;" x="375.042743" xlink:href="#m7e0d97c4ad" y="294.579581"/>
     <use style="fill:#ff0000;stroke:#ff0000;" x="394.019264" xlink:href="#m7e0d97c4ad" y="294.579581"/>
     <use style="fill:#ff0000;stroke:#ff0000;" x="412.995784" xlink:href="#m7e0d97c4ad" y="294.579581"/>
     <use style="fill:#ff0000;stroke:#ff0000;" x="431.972305" xlink:href="#m7e0d97c4ad" y="294.579581"/>
    </g>
   </g>
   <g id="line2d_89">
    <path clip-path="url(#pa8ca7eefd4)" d="M 71.41841 40.600764 
L 90.394931 42.493868 
L 109.371451 45.056332 
L 128.347972 48.837845 
L 147.324493 55.05434 
L 166.301014 66.417354 
L 185.277535 88.615392 
L 204.254056 132.902073 
L 223.230576 221.471396 
L 242.207097 283.098394 
L 261.183618 287.852435 
L 280.160139 287.852435 
L 299.13666 287.852435 
L 318.11318 287.852435 
L 337.089701 287.852435 
L 356.066222 287.852435 
L 375.042743 287.852435 
L 394.019264 287.852435 
L 412.995784 287.852435 
L 431.972305 287.852435 
" style="fill:none;stroke:#000000;stroke-linecap:square;stroke-width:1.5;"/>
    <defs>
     <path d="M -3 3 
L 3 3 
L 3 -3 
L -3 -3 
z
" id="m7e7ab2ae8a" style="stroke:#000000;stroke-linejoin:miter;"/>
    </defs>
    <g clip-path="url(#pa8ca7eefd4)">
     <use style="stroke:#000000;stroke-linejoin:miter;" x="71.41841" xlink:href="#m7e7ab2ae8a" y="40.600764"/>
     <use style="stroke:#000000;stroke-linejoin:miter;" x="90.394931" xlink:href="#m7e7ab2ae8a" y="42.493868"/>
     <use style="stroke:#000000;stroke-linejoin:miter;" x="109.371451" xlink:href="#m7e7ab2ae8a" y="45.056332"/>
     <use style="stroke:#000000;stroke-linejoin:miter;" x="128.347972" xlink:href="#m7e7ab2ae8a" y="48.837845"/>
     <use style="stroke:#000000;stroke-linejoin:miter;" x="147.324493" xlink:href="#m7e7ab2ae8a" y="55.05434"/>
     <use style="stroke:#000000;stroke-linejoin:miter;" x="166.301014" xlink:href="#m7e7ab2ae8a" y="66.417354"/>
     <use style="stroke:#000000;stroke-linejoin:miter;" x="185.277535" xlink:href="#m7e7ab2ae8a" y="88.615392"/>
     <use style="stroke:#000000;stroke-linejoin:miter;" x="204.254056" xlink:href="#m7e7ab2ae8a" y="132.902073"/>
     <use style="stroke:#000000;stroke-linejoin:miter;" x="223.230576" xlink:href="#m7e7ab2ae8a" y="221.471396"/>
     <use style="stroke:#000000;stroke-linejoin:miter;" x="242.207097" xlink:href="#m7e7ab2ae8a" y="283.098394"/>
     <use style="stroke:#000000;stroke-linejoin:miter;" x="261.183618" xlink:href="#m7e7ab2ae8a" y="287.852435"/>
     <use style="stroke:#000000;stroke-linejoin:miter;" x="280.160139" xlink:href="#m7e7ab2ae8a" y="287.852435"/>
     <use style="stroke:#000000;stroke-linejoin:miter;" x="299.13666" xlink:href="#m7e7ab2ae8a" y="287.852435"/>
     <use style="stroke:#000000;stroke-linejoin:miter;" x="318.11318" xlink:href="#m7e7ab2ae8a" y="287.852435"/>
     <use style="stroke:#000000;stroke-linejoin:miter;" x="337.089701" xlink:href="#m7e7ab2ae8a" y="287.852435"/>
     <use style="stroke:#000000;stroke-linejoin:miter;" x="356.066222" xlink:href="#m7e7ab2ae8a" y="287.852435"/>
     <use style="stroke:#000000;stroke-linejoin:miter;" x="375.042743" xlink:href="#m7e7ab2ae8a" y="287.852435"/>
     <use style="stroke:#000000;stroke-linejoin:miter;" x="394.019264" xlink:href="#m7e7ab2ae8a" y="287.852435"/>
     <use style="stroke:#000000;stroke-linejoin:miter;" x="412.995784" xlink:href="#m7e7ab2ae8a" y="287.852435"/>
     <use style="stroke:#000000;stroke-linejoin:miter;" x="431.972305" xlink:href="#m7e7ab2ae8a" y="287.852435"/>
    </g>
   </g>
   <g id="line2d_90">
    <path clip-path="url(#pa8ca7eefd4)" d="M 71.41841 37.834825 
L 90.394931 39.047682 
L 109.371451 40.519134 
L 128.347972 42.381563 
L 147.324493 44.883158 
L 166.301014 48.52931 
L 185.277535 54.422123 
L 204.254056 65.018194 
L 223.230576 85.547047 
L 242.207097 126.441511 
L 261.183618 208.221935 
L 280.160139 283.098394 
L 280.235829 345.16 
M 318.03749 345.16 
L 318.11318 283.098394 
L 318.188871 345.16 
M 355.990532 345.16 
L 356.066222 283.098394 
L 356.141912 345.16 
M 393.943573 345.16 
L 394.019264 283.098394 
L 394.094954 345.16 
M 431.896615 345.16 
L 431.972305 283.098394 
" style="fill:none;stroke:#0000ff;stroke-linecap:square;stroke-width:1.5;"/>
    <defs>
     <path d="M -1.5 3 
L 0 1.5 
L 1.5 3 
L 3 1.5 
L 1.5 0 
L 3 -1.5 
L 1.5 -3 
L 0 -1.5 
L -1.5 -3 
L -3 -1.5 
L -1.5 0 
L -3 1.5 
z
" id="ma68269a999" style="stroke:#0000ff;stroke-linejoin:miter;"/>
    </defs>
    <g clip-path="url(#pa8ca7eefd4)">
     <use style="fill:#0000ff;stroke:#0000ff;stroke-linejoin:miter;" x="71.41841" xlink:href="#ma68269a999" y="37.834825"/>
     <use style="fill:#0000ff;stroke:#0000ff;stroke-linejoin:miter;" x="90.394931" xlink:href="#ma68269a999" y="39.047682"/>
     <use style="fill:#0000ff;stroke:#0000ff;stroke-linejoin:miter;" x="109.371451" xlink:href="#ma68269a999" y="40.519134"/>
     <use style="fill:#0000ff;stroke:#0000ff;stroke-linejoin:miter;" x="128.347972" xlink:href="#ma68269a999" y="42.381563"/>
     <use style="fill:#0000ff;stroke:#0000ff;stroke-linejoin:miter;" x="147.324493" xlink:href="#ma68269a999" y="44.883158"/>
     <use style="fill:#0000ff;stroke:#0000ff;stroke-linejoin:miter;" x="166.301014" xlink:href="#ma68269a999" y="48.52931"/>
     <use style="fill:#0000ff;stroke:#0000ff;stroke-linejoin:miter;" x="185.277535" xlink:href="#ma68269a999" y="54.422123"/>
     <use style="fill:#0000ff;stroke:#0000ff;stroke-linejoin:miter;" x="204.254056" xlink:href="#ma68269a999" y="65.018194"/>
     <use style="fill:#0000ff;stroke:#0000ff;stroke-linejoin:miter;" x="223.230576" xlink:href="#ma68269a999" y="85.547047"/>
     <use style="fill:#0000ff;stroke:#0000ff;stroke-linejoin:miter;" x="242.207097" xlink:href="#ma68269a999" y="126.441511"/>
     <use style="fill:#0000ff;stroke:#0000ff;stroke-linejoin:miter;" x="261.183618" xlink:href="#ma68269a999" y="208.221935"/>
     <use style="fill:#0000ff;stroke:#0000ff;stroke-linejoin:miter;" x="280.160139" xlink:href="#ma68269a999" y="283.098394"/>
     <use style="fill:#0000ff;stroke:#0000ff;stroke-linejoin:miter;" x="299.13666" xlink:href="#ma68269a999" y="15842.732823"/>
     <use style="fill:#0000ff;stroke:#0000ff;stroke-linejoin:miter;" x="318.11318" xlink:href="#ma68269a999" y="283.098394"/>
     <use style="fill:#0000ff;stroke:#0000ff;stroke-linejoin:miter;" x="337.089701" xlink:href="#ma68269a999" y="15842.732823"/>
     <use style="fill:#0000ff;stroke:#0000ff;stroke-linejoin:miter;" x="356.066222" xlink:href="#ma68269a999" y="283.098394"/>
     <use style="fill:#0000ff;stroke:#0000ff;stroke-linejoin:miter;" x="375.042743" xlink:href="#ma68269a999" y="15842.732823"/>
     <use style="fill:#0000ff;stroke:#0000ff;stroke-linejoin:miter;" x="394.019264" xlink:href="#ma68269a999" y="283.098394"/>
     <use style="fill:#0000ff;stroke:#0000ff;stroke-linejoin:miter;" x="412.995784" xlink:href="#ma68269a999" y="15842.732823"/>
     <use style="fill:#0000ff;stroke:#0000ff;stroke-linejoin:miter;" x="431.972305" xlink:href="#ma68269a999" y="283.098394"/>
    </g>
   </g>
   <g id="patch_3">
    <path d="M 53.390715 307.416819 
L 53.390715 24.997587 
" style="fill:none;stroke:#000000;stroke-linecap:square;stroke-linejoin:miter;stroke-width:0.8;"/>
   </g>
   <g id="patch_4">
    <path d="M 450 307.416819 
L 450 24.997587 
" style="fill:none;stroke:#000000;stroke-linecap:square;stroke-linejoin:miter;stroke-width:0.8;"/>
   </g>
   <g id="patch_5">
    <path d="M 53.390715 307.416819 
L 450 307.416819 
" style="fill:none;stroke:#000000;stroke-linecap:square;stroke-linejoin:miter;stroke-width:0.8;"/>
   </g>
   <g id="patch_6">
    <path d="M 53.390715 24.997587 
L 450 24.997587 
" style="fill:none;stroke:#000000;stroke-linecap:square;stroke-linejoin:miter;stroke-width:0.8;"/>
   </g>
   <g id="text_22">
    <!-- Convergenza a $I$ col metodo di Newton -->
    <defs>
     <path d="M 62.09375 67.984375 
C 62.09375 69.796875 62 69.890625 61.40625 69.890625 
C 61 69.890625 60.90625 69.796875 60.203125 68.59375 
L 55.796875 60.140625 
C 50.90625 66.390625 44.90625 70 37.203125 70 
C 20.09375 70 4.59375 54.796875 4.59375 34.046875 
C 4.59375 13.078125 20.09375 -2 37.296875 -2 
C 52.59375 -2 62.09375 11.578125 62.09375 23.15625 
C 62.09375 24.171875 62.09375 24.578125 61.203125 24.578125 
C 60.40625 24.578125 60.40625 24.265625 60.296875 23.359375 
C 59.5 9.25 49.5 0.59375 38.703125 0.59375 
C 28.5 0.59375 12.203125 7.84375 12.203125 34.046875 
C 12.203125 60.34375 28.796875 67.390625 38.5 67.390625 
C 49.796875 67.390625 58 57.515625 59.90625 43.515625 
C 60.09375 42.296875 60.09375 42.109375 61 42.109375 
C 62.09375 42.109375 62.09375 42.296875 62.09375 44.125 
z
" id="CMR17-67"/>
     <path d="M 39.09375 33.953125 
C 40 36.171875 41.59375 40.1875 47.40625 40.390625 
L 47.40625 43 
C 45.5 42.890625 43 42.796875 41.09375 42.796875 
C 39 42.796875 35.703125 42.796875 33.703125 43 
L 33.703125 40.390625 
C 36.203125 40.1875 37.59375 38.984375 37.59375 36.375 
C 37.59375 35.46875 37.59375 35.265625 37 33.859375 
L 26 5.921875 
L 14.09375 36.0625 
C 13.5 37.375 13.5 37.578125 13.5 37.984375 
C 13.5 40.390625 16.796875 40.390625 18.296875 40.390625 
L 18.296875 43 
C 15.90625 42.796875 11.5 42.796875 9 42.796875 
C 6.296875 42.796875 3.203125 42.796875 1 43 
L 1 40.390625 
C 4.796875 40.390625 6.90625 40.390625 8.09375 37.28125 
L 22.59375 0.6875 
C 23.203125 -0.8125 23.296875 -1 24.203125 -1 
C 25.09375 -1 25.203125 -0.8125 25.796875 0.6875 
z
" id="CMR17-118"/>
     <path d="M 11.09375 18.203125 
C 13 16.6875 16.296875 15 20.296875 15 
C 28.203125 15 35 21.234375 35 29.609375 
C 35 32.234375 34.203125 36.265625 31.203125 39.390625 
C 34 42.390625 38.09375 43.390625 40.40625 43.390625 
C 40.796875 43.390625 41.40625 43.390625 41.90625 43.09375 
C 41.5 42.984375 40.59375 42.59375 40.59375 40.984375 
C 40.59375 39.6875 41.5 38.796875 42.796875 38.796875 
C 44.296875 38.796875 45.09375 39.796875 45.09375 41.09375 
C 45.09375 42.984375 43.59375 45 40.40625 45 
C 36.40625 45 32.90625 43.09375 30.09375 40.484375 
C 27.09375 43.1875 23.5 44.1875 20.296875 44.1875 
C 12.40625 44.1875 5.59375 37.984375 5.59375 29.609375 
C 5.59375 23.859375 8.90625 20.21875 9.90625 19.21875 
C 6.90625 15.6875 6.90625 11.59375 6.90625 11.09375 
C 6.90625 8.5 7.90625 4.6875 11.296875 2.59375 
C 6.09375 1.28125 2 -2.875 2 -8.078125 
C 2 -15.5625 11.5 -21 22.90625 -21 
C 33.90625 -21 43.796875 -15.765625 43.796875 -7.96875 
C 43.796875 6 29 6 21.296875 6 
C 19 6 14.90625 6 14.40625 6.09375 
C 11.296875 6.59375 9.203125 9.390625 9.203125 12.890625 
C 9.203125 13.796875 9.203125 16 11.09375 18.203125 
z
M 20.296875 16.6875 
C 11.5 16.6875 11.5 27.59375 11.5 29.609375 
C 11.5 31.625 11.5 42.484375 20.296875 42.484375 
C 29.09375 42.484375 29.09375 31.625 29.09375 29.609375 
C 29.09375 27.59375 29.09375 16.6875 20.296875 16.6875 
z
M 22.90625 -19.3125 
C 12.90625 -19.3125 6 -13.796875 6 -8.078125 
C 6 -4.859375 7.703125 -1.84375 9.90625 -0.171875 
C 12.40625 1.59375 13.40625 1.59375 20.203125 1.59375 
C 28.40625 1.59375 39.796875 1.59375 39.796875 -8.078125 
C 39.796875 -13.796875 32.90625 -19.3125 22.90625 -19.3125 
z
" id="CMR17-103"/>
     <path d="M 67.59375 30.53125 
C 67.59375 35.5625 66.703125 44 54.796875 44 
C 48 44 43.296875 39.375 41.5 33.953125 
L 41.40625 33.953125 
C 40.203125 42.1875 34.296875 44 28.703125 44 
C 20.796875 44 16.703125 37.875 15.203125 33.84375 
L 15.09375 33.84375 
L 15.09375 44 
L 3.296875 42.890625 
L 3.296875 40.28125 
C 9.203125 40.28125 10.09375 39.6875 10.09375 34.859375 
L 10.09375 6.921875 
C 10.09375 3.09375 9.703125 2.59375 3.296875 2.59375 
L 3.296875 0 
C 5.703125 0.1875 10.09375 0.1875 12.703125 0.1875 
C 15.296875 0.1875 19.796875 0.1875 22.203125 0 
L 22.203125 2.59375 
C 15.796875 2.59375 15.40625 3 15.40625 6.921875 
L 15.40625 26.21875 
C 15.40625 35.453125 21 42.390625 28 42.390625 
C 35.40625 42.390625 36.203125 35.765625 36.203125 30.9375 
L 36.203125 6.921875 
C 36.203125 3.09375 35.796875 2.59375 29.40625 2.59375 
L 29.40625 0 
C 31.796875 0.1875 36.203125 0.1875 38.796875 0.1875 
C 41.40625 0.1875 45.90625 0.1875 48.296875 0 
L 48.296875 2.59375 
C 41.90625 2.59375 41.5 3 41.5 6.921875 
L 41.5 26.21875 
C 41.5 35.453125 47.09375 42.390625 54.09375 42.390625 
C 61.5 42.390625 62.296875 35.765625 62.296875 30.9375 
L 62.296875 6.921875 
C 62.296875 3.09375 61.90625 2.59375 55.5 2.59375 
L 55.5 0 
C 57.90625 0.1875 62.296875 0.1875 64.90625 0.1875 
C 67.5 0.1875 72 0.1875 74.40625 0 
L 74.40625 2.59375 
C 68 2.59375 67.59375 3 67.59375 6.921875 
z
" id="CMR17-109"/>
     <path d="M 20.5 66.796875 
C 19.796875 67.890625 19.703125 68 17.796875 68 
L 5.09375 68 
L 5.09375 65.390625 
L 7 65.390625 
C 11 65.390625 12.796875 64.890625 13.09375 64.796875 
L 13.09375 9.75 
C 13.09375 7.265625 13.09375 2.59375 5.09375 2.59375 
L 5.09375 0 
C 7.40625 0.1875 11.59375 0.1875 14.09375 0.1875 
C 16.59375 0.1875 20.796875 0.1875 23.09375 0 
L 23.09375 2.59375 
C 15.09375 2.59375 15.09375 7.265625 15.09375 9.75 
L 15.09375 63.390625 
C 15.796875 62.796875 15.796875 62.609375 16.5 61.609375 
L 53.59375 1.1875 
C 54.296875 0 54.59375 0 55.09375 0 
C 56.09375 0 56.09375 0.296875 56.09375 2.1875 
L 56.09375 58.21875 
C 56.09375 60.703125 56.09375 65.390625 64.09375 65.390625 
L 64.09375 68 
C 61.796875 67.796875 57.59375 67.796875 55.09375 67.796875 
C 52.59375 67.796875 48.40625 67.796875 46.09375 68 
L 46.09375 65.390625 
C 54.09375 65.390625 54.09375 60.703125 54.09375 58.21875 
L 54.09375 12.140625 
z
" id="CMR17-78"/>
     <path d="M 58.203125 34.15625 
C 60.203125 40.09375 64.203125 40.296875 65.703125 40.390625 
L 65.703125 43 
C 63.703125 42.890625 61.703125 42.796875 59.703125 42.796875 
C 57.796875 42.796875 53.5 42.796875 51.796875 43 
L 51.796875 40.390625 
C 54.90625 40.1875 56.59375 38.375 56.59375 35.875 
C 56.59375 35.171875 56.40625 34.265625 56.203125 33.5625 
L 46.796875 6.21875 
L 36.59375 35.875 
C 36.40625 36.578125 36.09375 37.375 36.09375 37.78125 
C 36.09375 40.390625 39.5 40.390625 41.09375 40.390625 
L 41.09375 43 
C 38.796875 42.796875 34.59375 42.796875 32.203125 42.796875 
C 29.703125 42.796875 27.09375 42.796875 24.796875 43 
L 24.796875 40.390625 
C 30.296875 40.390625 30.296875 40.1875 32.40625 33.859375 
L 23.203125 6.921875 
L 13.296875 35.96875 
C 12.796875 37.28125 12.796875 37.484375 12.796875 37.78125 
C 12.796875 40.390625 16.203125 40.390625 17.796875 40.390625 
L 17.796875 43 
C 15.40625 42.796875 11.203125 42.796875 8.703125 42.796875 
C 6.5 42.796875 3.09375 42.796875 1 43 
L 1 40.390625 
C 5.40625 40.390625 6.5 40.09375 7.59375 36.765625 
L 19.90625 0.59375 
C 20.296875 -0.703125 20.59375 -1 21.40625 -1 
C 22.09375 -1 22.5 -0.8125 23 0.6875 
L 33.296875 31.046875 
L 43.703125 0.6875 
C 44.203125 -0.8125 44.59375 -1 45.296875 -1 
C 46.09375 -1 46.40625 -0.703125 46.796875 0.59375 
z
" id="CMR17-119"/>
    </defs>
    <g transform="translate(150.933627 18.997587)scale(0.12 -0.12)">
     <use transform="scale(0.996264)" xlink:href="#CMR17-67"/>
     <use transform="translate(66.509881 0)scale(0.996264)" xlink:href="#CMR17-111"/>
     <use transform="translate(112.200358 0)scale(0.996264)" xlink:href="#CMR17-110"/>
     <use transform="translate(160.493274 0)scale(0.996264)" xlink:href="#CMR17-118"/>
     <use transform="translate(206.183735 0)scale(0.996264)" xlink:href="#CMR17-101"/>
     <use transform="translate(246.669396 0)scale(0.996264)" xlink:href="#CMR17-114"/>
     <use transform="translate(281.950164 0)scale(0.996264)" xlink:href="#CMR17-103"/>
     <use transform="translate(327.640641 0)scale(0.996264)" xlink:href="#CMR17-101"/>
     <use transform="translate(368.126301 0)scale(0.996264)" xlink:href="#CMR17-110"/>
     <use transform="translate(419.021671 0)scale(0.996264)" xlink:href="#CMR17-122"/>
     <use transform="translate(459.507332 0)scale(0.996264)" xlink:href="#CMR17-97"/>
     <use transform="translate(535.273775 0)scale(0.996264)" xlink:href="#CMR17-97"/>
     <use transform="translate(611.040218 0)scale(0.996264)" xlink:href="#CMMI12-73"/>
     <use transform="translate(691.972699 0)scale(0.996264)" xlink:href="#CMR17-99"/>
     <use transform="translate(732.458359 0)scale(0.996264)" xlink:href="#CMR17-111"/>
     <use transform="translate(778.148836 0)scale(0.996264)" xlink:href="#CMR17-108"/>
     <use transform="translate(833.095861 0)scale(0.996264)" xlink:href="#CMR17-109"/>
     <use transform="translate(910.015451 0)scale(0.996264)" xlink:href="#CMR17-101"/>
     <use transform="translate(950.501112 0)scale(0.996264)" xlink:href="#CMR17-116"/>
     <use transform="translate(985.781879 0)scale(0.996264)" xlink:href="#CMR17-111"/>
     <use transform="translate(1034.074795 0)scale(0.996264)" xlink:href="#CMR17-100"/>
     <use transform="translate(1084.970165 0)scale(0.996264)" xlink:href="#CMR17-111"/>
     <use transform="translate(1160.736608 0)scale(0.996264)" xlink:href="#CMR17-100"/>
     <use transform="translate(1211.631978 0)scale(0.996264)" xlink:href="#CMR17-105"/>
     <use transform="translate(1266.579003 0)scale(0.996264)" xlink:href="#CMR17-78"/>
     <use transform="translate(1335.651433 0)scale(0.996264)" xlink:href="#CMR17-101"/>
     <use transform="translate(1376.137093 0)scale(0.996264)" xlink:href="#CMR17-119"/>
     <use transform="translate(1442.646974 0)scale(0.996264)" xlink:href="#CMR17-116"/>
     <use transform="translate(1477.927742 0)scale(0.996264)" xlink:href="#CMR17-111"/>
     <use transform="translate(1523.618219 0)scale(0.996264)" xlink:href="#CMR17-110"/>
    </g>
   </g>
   <g id="legend_1">
    <g id="patch_7">
     <path d="M 277.009704 79.885508 
L 445 79.885508 
Q 447 79.885508 447 77.885508 
L 447 33.997587 
Q 447 31.997587 445 31.997587 
L 277.009704 31.997587 
Q 275.009704 31.997587 275.009704 33.997587 
L 275.009704 77.885508 
Q 275.009704 79.885508 277.009704 79.885508 
z
" style="fill:#4c4c4c;opacity:0.5;stroke:#4c4c4c;stroke-linejoin:miter;"/>
    </g>
    <g id="patch_8">
     <path d="M 275.009704 77.885508 
L 443 77.885508 
Q 445 77.885508 445 75.885508 
L 445 31.997587 
Q 445 29.997587 443 29.997587 
L 275.009704 29.997587 
Q 273.009704 29.997587 273.009704 31.997587 
L 273.009704 75.885508 
Q 273.009704 77.885508 275.009704 77.885508 
z
" style="fill:#ffffff;stroke:#cccccc;stroke-linejoin:miter;"/>
    </g>
    <g id="line2d_91">
     <path d="M 277.009704 37.969567 
L 297.009704 37.969567 
" style="fill:none;stroke:#ff0000;stroke-linecap:square;stroke-width:1.5;"/>
    </g>
    <g id="line2d_92">
     <g>
      <use style="fill:#ff0000;stroke:#ff0000;" x="287.009704" xlink:href="#m7e0d97c4ad" y="37.969567"/>
     </g>
    </g>
    <g id="text_23">
     <!-- valori ottenuti dalla serie (1 A) -->
     <defs>
      <path d="M 29.40625 42.890625 
L 29.40625 40.296875 
C 35.296875 40.296875 36.203125 39.6875 36.203125 34.828125 
L 36.203125 16.453125 
C 36.203125 7.96875 31.703125 0.59375 24.296875 0.59375 
C 16.09375 0.59375 15.40625 5.546875 15.40625 10.796875 
L 15.40625 44 
L 3.296875 42.890625 
L 3.296875 40.296875 
C 7.296875 40.296875 10 40.296875 10.09375 36.25 
L 10.09375 16.859375 
C 10.09375 10.09375 10.09375 5.75 12.703125 2.921875 
C 14 1.609375 16.5 -1 23.703125 -1 
C 32.203125 -1 35.5 6.25 36.296875 8.375 
L 36.40625 8.375 
L 36.40625 -1 
L 48.296875 -0.203125 
L 48.296875 2.40625 
C 42.40625 2.40625 41.5 3.015625 41.5 7.859375 
L 41.5 44 
z
" id="CMR17-117"/>
      <path d="M 30.59375 -24.40625 
C 30.59375 -24.3125 30.59375 -24.109375 30.296875 -23.8125 
C 25.703125 -19.109375 13.40625 -6.296875 13.40625 24.9375 
C 13.40625 56.171875 25.5 68.875 30.40625 73.890625 
C 30.40625 73.984375 30.59375 74.1875 30.59375 74.484375 
C 30.59375 74.796875 30.296875 75 29.90625 75 
C 28.796875 75 20.296875 67.578125 15.40625 56.5625 
C 10.40625 45.453125 9 34.65625 9 25.046875 
C 9 17.828125 9.703125 5.625 15.703125 -7.296875 
C 20.5 -17.703125 28.703125 -25 29.90625 -25 
C 30.40625 -25 30.59375 -24.8125 30.59375 -24.40625 
z
" id="CMR17-40"/>
      <path d="M 26.296875 24.9375 
C 26.296875 32.140625 25.59375 44.359375 19.59375 57.265625 
C 14.796875 67.6875 6.59375 75 5.40625 75 
C 5.09375 75 4.703125 74.890625 4.703125 74.390625 
C 4.703125 74.1875 4.796875 74.09375 4.90625 73.890625 
C 9.703125 68.875 21.90625 56.171875 21.90625 25.046875 
C 21.90625 -6.1875 9.796875 -18.90625 4.90625 -23.90625 
C 4.796875 -24.109375 4.703125 -24.203125 4.703125 -24.40625 
C 4.703125 -24.90625 5.09375 -25 5.40625 -25 
C 6.5 -25 15 -17.609375 19.90625 -6.59375 
C 24.90625 4.515625 26.296875 15.328125 26.296875 24.9375 
z
" id="CMR17-41"/>
     </defs>
     <g transform="translate(305.009704 41.469567)scale(0.1 -0.1)">
      <use transform="scale(0.996264)" xlink:href="#CMR17-118"/>
      <use transform="translate(43.088099 0)scale(0.996264)" xlink:href="#CMR17-97"/>
      <use transform="translate(88.778576 0)scale(0.996264)" xlink:href="#CMR17-108"/>
      <use transform="translate(113.649635 0)scale(0.996264)" xlink:href="#CMR17-111"/>
      <use transform="translate(159.340112 0)scale(0.996264)" xlink:href="#CMR17-114"/>
      <use transform="translate(194.62088 0)scale(0.996264)" xlink:href="#CMR17-105"/>
      <use transform="translate(249.567905 0)scale(0.996264)" xlink:href="#CMR17-111"/>
      <use transform="translate(295.258382 0)scale(0.996264)" xlink:href="#CMR17-116"/>
      <use transform="translate(330.539149 0)scale(0.996264)" xlink:href="#CMR17-116"/>
      <use transform="translate(365.819917 0)scale(0.996264)" xlink:href="#CMR17-101"/>
      <use transform="translate(406.305578 0)scale(0.996264)" xlink:href="#CMR17-110"/>
      <use transform="translate(454.598494 0)scale(0.996264)" xlink:href="#CMR17-117"/>
      <use transform="translate(505.493863 0)scale(0.996264)" xlink:href="#CMR17-116"/>
      <use transform="translate(540.774631 0)scale(0.996264)" xlink:href="#CMR17-105"/>
      <use transform="translate(595.721656 0)scale(0.996264)" xlink:href="#CMR17-100"/>
      <use transform="translate(646.617026 0)scale(0.996264)" xlink:href="#CMR17-97"/>
      <use transform="translate(692.307503 0)scale(0.996264)" xlink:href="#CMR17-108"/>
      <use transform="translate(717.178561 0)scale(0.996264)" xlink:href="#CMR17-108"/>
      <use transform="translate(742.04962 0)scale(0.996264)" xlink:href="#CMR17-97"/>
      <use transform="translate(817.816063 0)scale(0.996264)" xlink:href="#CMR17-115"/>
      <use transform="translate(853.617401 0)scale(0.996264)" xlink:href="#CMR17-101"/>
      <use transform="translate(894.103061 0)scale(0.996264)" xlink:href="#CMR17-114"/>
      <use transform="translate(929.383829 0)scale(0.996264)" xlink:href="#CMR17-105"/>
      <use transform="translate(954.254888 0)scale(0.996264)" xlink:href="#CMR17-101"/>
      <use transform="translate(1024.816514 0)scale(0.996264)" xlink:href="#CMR17-40"/>
      <use transform="translate(1060.097282 0)scale(0.996264)" xlink:href="#CMR17-49"/>
      <use transform="translate(1135.863726 0)scale(0.996264)" xlink:href="#CMR17-65"/>
      <use transform="translate(1204.936156 0)scale(0.996264)" xlink:href="#CMR17-41"/>
     </g>
    </g>
    <g id="line2d_93">
     <path d="M 277.009704 52.932208 
L 297.009704 52.932208 
" style="fill:none;stroke:#000000;stroke-linecap:square;stroke-width:1.5;"/>
    </g>
    <g id="line2d_94">
     <g>
      <use style="stroke:#000000;stroke-linejoin:miter;" x="287.009704" xlink:href="#m7e7ab2ae8a" y="52.932208"/>
     </g>
    </g>
    <g id="text_24">
     <!-- valori ottenuti dalla serie (5 A) -->
     <g transform="translate(305.009704 56.432208)scale(0.1 -0.1)">
      <use transform="scale(0.996264)" xlink:href="#CMR17-118"/>
      <use transform="translate(43.088099 0)scale(0.996264)" xlink:href="#CMR17-97"/>
      <use transform="translate(88.778576 0)scale(0.996264)" xlink:href="#CMR17-108"/>
      <use transform="translate(113.649635 0)scale(0.996264)" xlink:href="#CMR17-111"/>
      <use transform="translate(159.340112 0)scale(0.996264)" xlink:href="#CMR17-114"/>
      <use transform="translate(194.62088 0)scale(0.996264)" xlink:href="#CMR17-105"/>
      <use transform="translate(249.567905 0)scale(0.996264)" xlink:href="#CMR17-111"/>
      <use transform="translate(295.258382 0)scale(0.996264)" xlink:href="#CMR17-116"/>
      <use transform="translate(330.539149 0)scale(0.996264)" xlink:href="#CMR17-116"/>
      <use transform="translate(365.819917 0)scale(0.996264)" xlink:href="#CMR17-101"/>
      <use transform="translate(406.305578 0)scale(0.996264)" xlink:href="#CMR17-110"/>
      <use transform="translate(454.598494 0)scale(0.996264)" xlink:href="#CMR17-117"/>
      <use transform="translate(505.493863 0)scale(0.996264)" xlink:href="#CMR17-116"/>
      <use transform="translate(540.774631 0)scale(0.996264)" xlink:href="#CMR17-105"/>
      <use transform="translate(595.721656 0)scale(0.996264)" xlink:href="#CMR17-100"/>
      <use transform="translate(646.617026 0)scale(0.996264)" xlink:href="#CMR17-97"/>
      <use transform="translate(692.307503 0)scale(0.996264)" xlink:href="#CMR17-108"/>
      <use transform="translate(717.178561 0)scale(0.996264)" xlink:href="#CMR17-108"/>
      <use transform="translate(742.04962 0)scale(0.996264)" xlink:href="#CMR17-97"/>
      <use transform="translate(817.816063 0)scale(0.996264)" xlink:href="#CMR17-115"/>
      <use transform="translate(853.617401 0)scale(0.996264)" xlink:href="#CMR17-101"/>
      <use transform="translate(894.103061 0)scale(0.996264)" xlink:href="#CMR17-114"/>
      <use transform="translate(929.383829 0)scale(0.996264)" xlink:href="#CMR17-105"/>
      <use transform="translate(954.254888 0)scale(0.996264)" xlink:href="#CMR17-101"/>
      <use transform="translate(1024.816514 0)scale(0.996264)" xlink:href="#CMR17-40"/>
      <use transform="translate(1060.097282 0)scale(0.996264)" xlink:href="#CMR17-53"/>
      <use transform="translate(1135.863726 0)scale(0.996264)" xlink:href="#CMR17-65"/>
      <use transform="translate(1204.936156 0)scale(0.996264)" xlink:href="#CMR17-41"/>
     </g>
    </g>
    <g id="line2d_95">
     <path d="M 277.009704 67.894848 
L 297.009704 67.894848 
" style="fill:none;stroke:#0000ff;stroke-linecap:square;stroke-width:1.5;"/>
    </g>
    <g id="line2d_96">
     <g>
      <use style="fill:#0000ff;stroke:#0000ff;stroke-linejoin:miter;" x="287.009704" xlink:href="#ma68269a999" y="67.894848"/>
     </g>
    </g>
    <g id="text_25">
     <!-- valori ottenuti dalla serie (7 A) -->
     <g transform="translate(305.009704 71.394848)scale(0.1 -0.1)">
      <use transform="scale(0.996264)" xlink:href="#CMR17-118"/>
      <use transform="translate(43.088099 0)scale(0.996264)" xlink:href="#CMR17-97"/>
      <use transform="translate(88.778576 0)scale(0.996264)" xlink:href="#CMR17-108"/>
      <use transform="translate(113.649635 0)scale(0.996264)" xlink:href="#CMR17-111"/>
      <use transform="translate(159.340112 0)scale(0.996264)" xlink:href="#CMR17-114"/>
      <use transform="translate(194.62088 0)scale(0.996264)" xlink:href="#CMR17-105"/>
      <use transform="translate(249.567905 0)scale(0.996264)" xlink:href="#CMR17-111"/>
      <use transform="translate(295.258382 0)scale(0.996264)" xlink:href="#CMR17-116"/>
      <use transform="translate(330.539149 0)scale(0.996264)" xlink:href="#CMR17-116"/>
      <use transform="translate(365.819917 0)scale(0.996264)" xlink:href="#CMR17-101"/>
      <use transform="translate(406.305578 0)scale(0.996264)" xlink:href="#CMR17-110"/>
      <use transform="translate(454.598494 0)scale(0.996264)" xlink:href="#CMR17-117"/>
      <use transform="translate(505.493863 0)scale(0.996264)" xlink:href="#CMR17-116"/>
      <use transform="translate(540.774631 0)scale(0.996264)" xlink:href="#CMR17-105"/>
      <use transform="translate(595.721656 0)scale(0.996264)" xlink:href="#CMR17-100"/>
      <use transform="translate(646.617026 0)scale(0.996264)" xlink:href="#CMR17-97"/>
      <use transform="translate(692.307503 0)scale(0.996264)" xlink:href="#CMR17-108"/>
      <use transform="translate(717.178561 0)scale(0.996264)" xlink:href="#CMR17-108"/>
      <use transform="translate(742.04962 0)scale(0.996264)" xlink:href="#CMR17-97"/>
      <use transform="translate(817.816063 0)scale(0.996264)" xlink:href="#CMR17-115"/>
      <use transform="translate(853.617401 0)scale(0.996264)" xlink:href="#CMR17-101"/>
      <use transform="translate(894.103061 0)scale(0.996264)" xlink:href="#CMR17-114"/>
      <use transform="translate(929.383829 0)scale(0.996264)" xlink:href="#CMR17-105"/>
      <use transform="translate(954.254888 0)scale(0.996264)" xlink:href="#CMR17-101"/>
      <use transform="translate(1024.816514 0)scale(0.996264)" xlink:href="#CMR17-40"/>
      <use transform="translate(1060.097282 0)scale(0.996264)" xlink:href="#CMR17-55"/>
      <use transform="translate(1135.863726 0)scale(0.996264)" xlink:href="#CMR17-65"/>
      <use transform="translate(1204.936156 0)scale(0.996264)" xlink:href="#CMR17-41"/>
     </g>
    </g>
   </g>
  </g>
 </g>
 <defs>
  <clipPath id="pa8ca7eefd4">
   <rect height="282.419232" width="396.609285" x="53.390715" y="24.997587"/>
  </clipPath>
 </defs>
</svg>
